/* XPM */
static char *_8403475a5944689d2a8b9c62fea681exbT8GB22BYhKWwmC[] = {
/* columns rows colors chars-per-pixel */
"64 64 201 2 ",
"   c #f7f5e4",
".  c #231816",
"X  c #241B1C",
"o  c #1E252C",
"O  c #1E263B",
"+  c #202125",
"@  c #473E3D",
"#  c #19344B",
"$  c #163652",
"%  c #1C284F",
"&  c #353F4A",
"*  c #113260",
"=  c #1F2F72",
"-  c #143474",
";  c #2B3E74",
":  c #12446A",
">  c #084B77",
",  c #124278",
"<  c #2D4F7B",
"1  c #4B4747",
"2  c #58555A",
"3  c #4D5572",
"4  c #596479",
"5  c #7C6F64",
"6  c #666976",
"7  c #677577",
"8  c #CE3734",
"9  c #B14D31",
"0  c #AB6E3F",
"q  c #DE6D1F",
"w  c #EA741E",
"e  c #E87C1D",
"r  c #CF4E2A",
"t  c #D86527",
"y  c #C47F3A",
"u  c #E47228",
"i  c #926D53",
"p  c #947259",
"a  c #857C71",
"s  c #E58C1B",
"d  c #EE881F",
"f  c #ED801E",
"g  c #E99C17",
"h  c #E6921D",
"j  c #E89619",
"k  c #E6991A",
"l  c #EA9B19",
"z  c #ECA50E",
"x  c #EFAB0C",
"c  c #F0AE0B",
"v  c #F2B405",
"b  c #F4B806",
"n  c #ECA312",
"m  c #E7A11C",
"M  c #EAA818",
"N  c #F4BB17",
"B  c #DE8C29",
"V  c #D88727",
"C  c #D1833C",
"Z  c #E78827",
"A  c #E29224",
"S  c #E49B24",
"D  c #E4942B",
"F  c #E89D20",
"G  c #E89936",
"H  c #EFAE2B",
"J  c #E9A638",
"K  c #EFB231",
"L  c #F0B339",
"P  c #AB834F",
"I  c #B28861",
"U  c #DE9741",
"Y  c #CE8643",
"T  c #F19F45",
"R  c #EDAF4F",
"E  c #F2A74F",
"W  c #F3AB5A",
"Q  c #F0B851",
"!  c #EFB456",
"~  c #E6AB66",
"^  c #F3BE62",
"/  c #F3B778",
"(  c #F7C647",
")  c #F7C850",
"_  c #F2C061",
"`  c #1F2F8E",
"'  c #19328F",
"]  c #013B95",
"[  c #093A94",
"{  c #083B95",
"}  c #193391",
"|  c #103592",
" . c #0A4988",
".. c #1C4688",
"X. c #015C8D",
"o. c #1A5488",
"O. c #034295",
"+. c #0B4292",
"@. c #02449A",
"#. c #09479A",
"$. c #014A9E",
"%. c #084B97",
"&. c #045399",
"*. c #0C5496",
"=. c #16599E",
"-. c #264C8C",
";. c #295782",
":. c #395A85",
">. c #2D5D9F",
",. c #0E6097",
"<. c #36638D",
"1. c #296E9E",
"2. c #256399",
"3. c #386797",
"4. c #014DA1",
"5. c #0A4DA1",
"6. c #0153A5",
"7. c #0359A6",
"8. c #0257A9",
"9. c #015DAD",
"0. c #0B5EAA",
"q. c #0B53A5",
"w. c #1150A1",
"e. c #155BA7",
"r. c #005FB0",
"t. c #2F5EA4",
"y. c #0260AF",
"u. c #0C61AD",
"i. c #1664A5",
"p. c #1264AD",
"a. c #1866AA",
"s. c #0064B2",
"d. c #0B65B1",
"f. c #0169B6",
"g. c #0B6BB5",
"h. c #006DBA",
"j. c #0A6FB9",
"k. c #176CB4",
"l. c #0173BE",
"z. c #0D74BC",
"x. c #1971B3",
"c. c #1172BA",
"v. c #1974B8",
"b. c #2862A6",
"n. c #2676AB",
"m. c #337BB2",
"M. c #4D6D85",
"N. c #717E8F",
"B. c #4878AA",
"V. c #5779A8",
"C. c #0176C1",
"Z. c #017BC4",
"A. c #007EC8",
"S. c #087EC6",
"D. c #197CC0",
"F. c #1C82B8",
"G. c #3789B0",
"H. c #7B808C",
"J. c #7F8392",
"K. c #538DBF",
"L. c #5C84AA",
"P. c #7A8EBD",
"I. c #7191BD",
"U. c #6A85A9",
"Y. c #0181C6",
"T. c #0183CC",
"R. c #0B86CC",
"E. c #0884CB",
"W. c #1185CA",
"Q. c #0B90CF",
"!. c #0187D0",
"~. c #008BD3",
"^. c #098ED3",
"/. c #118FD1",
"(. c #0091D7",
"). c #0094DA",
"_. c #0199DE",
"`. c #0C9ADC",
"'. c #0C94D7",
"]. c #1396D9",
"[. c #119ADC",
"{. c #1194D7",
"}. c #009DE1",
"|. c #0A9DE1",
" X c #01A2E6",
".X c #00A5E9",
"XX c #75A4C6",
"oX c #858896",
"OX c #938F91",
"+X c #848185",
"@X c #8B9CAF",
"#X c #8595B7",
"$X c #9DA6B9",
"%X c #B0B3BF",
"&X c #ACADB4",
"*X c #F7D7B3",
"=X c #8BB4D6",
"-X c #B1BBCD",
";X c #BEC8D6",
":X c #C6CCDB",
">X c #D0D7E6",
/* pixels */
"                                                                                                                                ",
"                                                              p.                                                                ",
"                                                      0.u.  0.9.p.9.                                                            ",
"                                                  0.9.u.y.9.r.r.9.a.                                                            ",
"                                                    0.r.r.9.s.r.s.s.s.r.d.r.9.                                                  ",
"                                                  p.9.s.s.h.C.Y.T.T.T.A.C.f.d.9.0.                                              ",
"                                              d.9.s.f.C.!.~.)._.}.}._._.(.Y.X.> &.u.                                            ",
"                                          u.9.9.s.l.Y.~.).)._._.}.}.}.}.).Y.l.f.y. .                                            ",
"                                        p.9.r.s.h.h.X.> X.Y.~.)._._._._.!.Z.h.9.&.O #                                           ",
"                                        9.r.9.s.s.y.&.7.y.f.Z.T.!.).).~.A.f.6., 3 6 6 2                                         ",
"                                      9.r.9.r.r.y.&.O.@.$.6.9.l.Y.!.~.!.l.9.+.6 b.*.b.#XOX                                      ",
"                                      s.9.s.9.9. .* % % % $ &.y.C.A.T.T.l.8.< U., . 1 V.;X                                      ",
"                                      9.9.s.s.%.- X @ oX$X$X6  .r.h.Z.A.h.9.< V.$ . . # I.                                      ",
"                                    p.9.9.9.9.@.O @ oXb.*.=.P.H.6.s.f.C.f.9.:.#X> . . # K.L.                                    ",
"                                    u.r.r.r.9.@.= +Xt.: X & b.:X;.9.r.s.f.9.o.&X=X% o > XXk.d.                                  ",
"                                    0.9.s.9.9.4.; oXd.+ X 1 3.>X@X9.9.s.s.r.7.6 %XB.+.B.G.A.Z.                                  ",
"                                    d.9.9.9.9.6.-.oXm.. . . ;.>X;X7.y.3.p I a :.<.m.m.l.!._.}.c.                                ",
"                                    9.r.s.r.9.9.#.N.K.O . o a.-XL.9.2.Y / *X*X~ M.l.Z.Y.)..X.XZ.                                ",
"                                    r.9.s.h.f.s.9.o.:. .: *.V.L.7.9.i Z E E W W C g.Z.T.}..X.XT.                                ",
"                                  u.s.f.Z.A.Z.l.f.9.w.-...3.2.y.9.4 w e d d f Z e 7 Z.T. X.X.XT.                y./.            ",
"                                  r.f.Z.!.!.!.Y.C.h.s.r.9.9.9.r.<.t w w w t r 0 4 5 Y.T.}..X.XY.              g.l.[.            ",
"                                  d.l.!.)._.).(.T.Z.C.s.r.r.r.r.9.i e q 8 8 8 9 1.l.l.!._..X Xz.            h.s.(.].            ",
"                                  y.C.~.}. X}._.(.!.Z.C.f.s.r.r.9.i.y G Z u r 9 7 l.l.!._. X!.          g.C.f.C. X              ",
"                                  u.f.!.}. X X X}.).~.Y.Z.h.s.r.9.s.2.P U D V P G.Y.l.Y.(.!.g.        z.Z.s.h.}.[.              ",
"                                    s.Z.(.}..X.X X}._.~.!.C.h.s.9.r.s.0.i.n.F.Q._.!.h.l.Z.d.      g.T.Z.s.f.).`.v.j.^.          ",
"        /.E.z.z.                    d.f.T.).}. X.X}.}.(.~.A.C.h.s.9.9.s.l.Z.(._..XT.s.f.p.    c.Z.~.l.y.f.!.~.g.f.}.].          ",
"           X).C.Z.T.Y.C.c.c.          r.h.Y.~._.}.}.).(.~.A.C.h.s.r.9.s.l.T.(.}._.h.0.      C.).T.f.7.s.Z.l.y.f.). X            ",
"          ]. X X!.h.C.T.~.~.!.S.C.g.  a.d.f.C.T.!.~.~.!.A.Z.C.f.s.s.r.r.f.Z.!.T.s.6.7.  0.Z.!.l.9.6.9.y.9.9.f.(.}.              ",
"            ]. X X).C.h.h.Z.T.).).}.~.Z.g.s.s.s.h.C.C.h.h.f.r.r.9.8.8.9.9.9.6.@.4.9.9.9.s.f.9.6.4.6.6.6.9.f.!._.                ",
"                `.|.).Y.C.s.s.h.C.S.!.)._.!.h.6.5.q.q.6.6.4.4.{ [ { { O.] @.$.6.8.s.r.9.8.6.4.$.4.6.6.7.f.A.R.                  ",
"                    W.E.C.l.s.9.s.s.s.h.A.!.(.C.5.} ` } [ ] ] ] ] @.@.@.$.7.9.y.s.f.f.s.9.@.@.$.4.6.6.9.f.d.0.g.'.              ",
"                Z.r.0.9.9.9.9.9.9.8.9.9.y.s.h.C.f.4.} } | { ] @.$.$.$.6.9.y.f.f.l.C.C.f.s.4.@.$.4.4.6.6.8.9.Z.}.|.              ",
"                `._.Z.f.9.9.9.6.6.6.6.6.4.6.6.6.8.6.{ | { ] $.4.4.6.6.9.s.h.l.Z.T.~.~.A.h.8.$.$.4.4.4.8.f.Y._.|.                ",
"                  [. X_.(.A.l.g.9.9.6.6.6.4.$.@.@.@.] ] @.$.6.6.6.9.9.s.h.C.Z.T.~._.}.).C.r.] $.$.4.6.s.Z.!.W.                  ",
"                      [.'.^.Z.h.s.9.6.6.4.$.$.@.@.] ] ] $.6.7.9.9.9.s.f.l.C.Y.(._.}.}.}.T.f.$.@.$.4.6.9.s.h.T.                  ",
"                        g.0.9.8.6.6.4.4.4.$.@.@.@.] ] ] 6.9.9.9.9.9.s.f.C.Z.!.).}. X X}.~.h.4.@.$.4.6.s.E.).'.                  ",
"                        ).~.S.j.s.9.6.6.4.4.$.@.] ] ] [ 6.9.9.r.r.r.s.h.C.A.!.).}. X X X~.h.4.@.$.4.r.C.E.                      ",
"                          |.}.~.E.l.y.6.4.@.@.] ] ] ] [ 9.9.9.9.9.r.s.l.C.A.T.).}. X X}.~.h.4.@.$.4.d.v.                        ",
"                                k.0.4.$.$.@.$.@.] ] { @.9.9.r.r.s.9.f.C.Z.A.!.).}. X.X}.~.h.$.@.4.s.T.^.                        ",
"                              D.C.l.h.f.s.6.$.4.6.@.8.y.9.s.9.9.9.r.s.l.Z.A.!.).}. X.X}.T.f.e.#.9.l.W.                          ",
"                                  {.^.W.k.f.Z.g.6.f.A.f.s.s.9.r.r.9.f.C.Z.A.!.).}.}.}.}.Z.d.                                    ",
"                                          z.9.9.f.A.C.Z.C.f.s.r.r.s.h.l.Z.A.!.(.}.}.}.!.l.d.                                    ",
"                                          9.9.s.h.Z.Z.A.A.C.s.r.s.s.h.C.Z.A.T.(.}.}.).Z.s.                                      ",
"                                          r.s.f.l.Z.T.!.!.A.f.r.9.s.h.C.Z.Z.!.).).).T.f.u.                                      ",
"                                          d.r.f.l.Z.~._._.!.l.s.s.f.h.C.Z.A.!.(.(.!.l.d.                                        ",
"                                          9.s.s.C.Y.).}.}.!.l.r.s.f.C.C.Z.A.!.~.T.h.9.                                          ",
"                                          r.9.s.l.T._.}.}.!.l.s.s.h.C.C.Z.A.!.A.h.r.                                            ",
"                    p.7.q.6.6.4.#.w.#.#.w.9.r.s.h.T._.}._.Y.f.s.f.h.C.C.Z.Z.C.f.8.b.                                            ",
"                      u.9.7.6.6.$.$.@.@.O.9.r.s.h.T.).).T.l.s.s.h.h.C.C.C.h.y.6.                                                ",
"                          0.6.6.6.$.$.@.@.4.r.s.l.T.~.Y.l.9.9.9.s.s.s.s.9.4.#.                                                  ",
"                          e.9.6.6.6.6.6.@.@.9.s.h.A.Z.l.9.$.4.4.6.6.6.4...-.                                                    ",
"                              9.y.7.$.$.$.q.u.s.h.l.f.5.{ @.@.@.5.] ] 3 V B                                                     ",
"                                              b.a.d.                    A k                                                     ",
"                                              k B                         h h                                                   ",
"                                              l                     A k D   h B   S m M M                                       ",
"                                            A s B k x v n         A c b v g s h l z z c c L                                     ",
"                                    F g l s s s g x b v n           S n n j s j j z v v c J                                     ",
"                                  c v n j h s s h g g F G                   A g c c z z N Q                                     ",
"                                S n g n g j g s                                 m b b z D                                       ",
"                                  H N n n c g                                     F z n                                         ",
"                                R ( L H N x                                                                                     ",
"                                ~ ^ R ) ( J                                                                                     ",
"                                      _ Q                                                                                       ",
"                                                                                                                                "
};
