/* XPM */
static char *_b7b2e0302dc4e51f0f38efbdea63f06kDCbr2ZfXDMVjSRd[] = {
/* columns rows colors chars-per-pixel */
"64 64 201 2 ",
"   c #f7f5e4",
".  c #231816",
"X  c #241B1C",
"o  c #1E252C",
"O  c #1E263B",
"+  c #202125",
"@  c #473E3D",
"#  c #19344B",
"$  c #163652",
"%  c #1C284F",
"&  c #353F4A",
"*  c #113260",
"=  c #1F2F72",
"-  c #143474",
";  c #2B3E74",
":  c #12446A",
">  c #084B77",
",  c #124278",
"<  c #2D4F7B",
"1  c #4B4747",
"2  c #58555A",
"3  c #4D5572",
"4  c #596479",
"5  c #7C6F64",
"6  c #666976",
"7  c #677577",
"8  c #CE3734",
"9  c #B14D31",
"0  c #AB6E3F",
"q  c #DE6D1F",
"w  c #EA741E",
"e  c #E87C1D",
"r  c #CF4E2A",
"t  c #D86527",
"y  c #C47F3A",
"u  c #E47228",
"i  c #926D53",
"p  c #947259",
"a  c #857C71",
"s  c #E58C1B",
"d  c #EE881F",
"f  c #ED801E",
"g  c #E99C17",
"h  c #E6921D",
"j  c #E89619",
"k  c #E6991A",
"l  c #EA9B19",
"z  c #ECA50E",
"x  c #EFAB0C",
"c  c #F0AE0B",
"v  c #F2B405",
"b  c #F4B806",
"n  c #ECA312",
"m  c #E7A11C",
"M  c #EAA818",
"N  c #F4BB17",
"B  c #DE8C29",
"V  c #D88727",
"C  c #D1833C",
"Z  c #E78827",
"A  c #E29224",
"S  c #E49B24",
"D  c #E4942B",
"F  c #E89D20",
"G  c #E89936",
"H  c #EFAE2B",
"J  c #E9A638",
"K  c #EFB231",
"L  c #F0B339",
"P  c #AB834F",
"I  c #B28861",
"U  c #DE9741",
"Y  c #CE8643",
"T  c #F19F45",
"R  c #EDAF4F",
"E  c #F2A74F",
"W  c #F3AB5A",
"Q  c #F0B851",
"!  c #EFB456",
"~  c #E6AB66",
"^  c #F3BE62",
"/  c #F3B778",
"(  c #F7C647",
")  c #F7C850",
"_  c #F2C061",
"`  c #1F2F8E",
"'  c #19328F",
"]  c #013B95",
"[  c #093A94",
"{  c #083B95",
"}  c #193391",
"|  c #103592",
" . c #0A4988",
".. c #1C4688",
"X. c #015C8D",
"o. c #1A5488",
"O. c #034295",
"+. c #0B4292",
"@. c #02449A",
"#. c #09479A",
"$. c #014A9E",
"%. c #084B97",
"&. c #045399",
"*. c #0C5496",
"=. c #16599E",
"-. c #264C8C",
";. c #295782",
":. c #395A85",
">. c #2D5D9F",
",. c #0E6097",
"<. c #36638D",
"1. c #296E9E",
"2. c #256399",
"3. c #386797",
"4. c #014DA1",
"5. c #0A4DA1",
"6. c #0153A5",
"7. c #0359A6",
"8. c #0257A9",
"9. c #015DAD",
"0. c #0B5EAA",
"q. c #0B53A5",
"w. c #1150A1",
"e. c #155BA7",
"r. c #005FB0",
"t. c #2F5EA4",
"y. c #0260AF",
"u. c #0C61AD",
"i. c #1664A5",
"p. c #1264AD",
"a. c #1866AA",
"s. c #0064B2",
"d. c #0B65B1",
"f. c #0169B6",
"g. c #0B6BB5",
"h. c #006DBA",
"j. c #0A6FB9",
"k. c #176CB4",
"l. c #0173BE",
"z. c #0D74BC",
"x. c #1971B3",
"c. c #1172BA",
"v. c #1974B8",
"b. c #2862A6",
"n. c #2676AB",
"m. c #337BB2",
"M. c #4D6D85",
"N. c #717E8F",
"B. c #4878AA",
"V. c #5779A8",
"C. c #0176C1",
"Z. c #017BC4",
"A. c #007EC8",
"S. c #087EC6",
"D. c #197CC0",
"F. c #1C82B8",
"G. c #3789B0",
"H. c #7B808C",
"J. c #7F8392",
"K. c #538DBF",
"L. c #5C84AA",
"P. c #7A8EBD",
"I. c #7191BD",
"U. c #6A85A9",
"Y. c #0181C6",
"T. c #0183CC",
"R. c #0B86CC",
"E. c #0884CB",
"W. c #1185CA",
"Q. c #0B90CF",
"!. c #0187D0",
"~. c #008BD3",
"^. c #098ED3",
"/. c #118FD1",
"(. c #0091D7",
"). c #0094DA",
"_. c #0199DE",
"`. c #0C9ADC",
"'. c #0C94D7",
"]. c #1396D9",
"[. c #119ADC",
"{. c #1194D7",
"}. c #009DE1",
"|. c #0A9DE1",
" X c #01A2E6",
".X c #00A5E9",
"XX c #75A4C6",
"oX c #858896",
"OX c #938F91",
"+X c #848185",
"@X c #8B9CAF",
"#X c #8595B7",
"$X c #9DA6B9",
"%X c #B0B3BF",
"&X c #ACADB4",
"*X c #F7D7B3",
"=X c #8BB4D6",
"-X c #B1BBCD",
";X c #BEC8D6",
":X c #C6CCDB",
">X c #D0D7E6",
/* pixels */
"                                                                                                                                ",
"                                                                p.                                                              ",
"                                                            9.p.9.u.  u.0.                                                      ",
"                                                            a.y.r.r.9.9.u.9.0.                                                  ",
"                                                  0.y.y.s.s.s.s.s.r.s.9.9.9.                                                    ",
"                                              0.9.s.h.l.T.Y.T.T.Z.C.h.f.s.0.p.                                                  ",
"                                            0.*.> X.T.(.)._.}._._.).(.T.C.f.s.9.y.                                              ",
"                                             .s.f.l.Y.(.}.}.}.}._._.).~.~.T.l.s.9.9.p.                                          ",
"                                          # O &.8.f.Z.~._._._._.).~.T.X.> X.l.l.y.y.y.u.                                        ",
"                                        2 6 4 2 , 8.f.T.~.).(.~.T.Z.f.y.7.&.7.s.y.y.9.9.                                        ",
"                                      OX#Xb.,.b.6 +.9.l.~.~.~.A.l.9.6.$.@.+.&.9.9.r.s.9.s.                                      ",
"                                      :XV.1 . , U., 8.l.T.T.Z.l.9.$.$ % % O - [ 9.9.s.9.9.                                      ",
"                                      I.# X . $ V.3 r.l.Z.Z.h.9.%.6 $X$X+X@ X - &.r.9.r.9.                                      ",
"                                    B.K.# . . , #X:.9.h.l.h.s.8.H.P.=.*.b.oX@ o O.9.s.9.9.p.                                    ",
"                                  d.x.XX> o # =X&Xo.r.f.f.s.9.;.:Xa.& X , >.+X= $.9.9.r.r.u.                                    ",
"                                  Z.S.G.B.w.t.%X6 7.r.s.s.y.8.@X>X3.1 . o p.J.< 4.9.r.r.r.0.                                    ",
"                                z.}._.T.z.n.m.3.:.a I p 3.s.9.-X>X;.. . . m.oX..6.r.r.9.r.d.                                    ",
"                                Z..X.X).T.l.l.M.~ *X*X/ Y 2.9.L.-Xa.+ . O K.N.4.9.9.r.9.9.u.                                    ",
"                                T..X.X}.Y.Z.x.C W W E E Z p 0.9.U.V.,.* %.:.o.8.s.f.h.f.r.r.                                    ",
"            /.y.                T..X.X XT.Z.7 e Z d d d f w 4 9.y.2.3.-.-.*.9.f.l.Z.A.C.f.s.9.                                  ",
"            [.l.d.              Y..X.X_.~.Z.5 M.0 r t w w w t <.s.y.y.9.r.s.h.Z.A.!.~.!.Z.f.s.                                  ",
"            ].(.s.h.            z. X.X_.T.Z.j.1.9 8 8 8 q e i 9.y.y.y.y.f.l.Z.T.~.)._.).!.l.u.                                  ",
"               XC.f.l.g.          ~. X_.T.l.l.7 9 r t Z G y i.9.r.9.s.f.l.Z.!.(._.}.}.}.~.C.u.                                  ",
"              [.}.h.f.Z.z.        g.!.(.Y.l.Y.G.0 V G U P 2.r.9.9.s.h.Z.T.~.)._. X.X.X_.!.h.u.                                  ",
"          '.j.v.|.(.h.s.Z.T.g.      g.C.l.h.~.}.Q.F.n.i.u.9.9.9.f.h.C.T.~.).}. X.X.X}.(.Z.s.                                    ",
"          ].).h.c.!.!.f.9.l.~.Z.c.    u.d.s.T. X}.~.Z.l.s.r.s.s.h.C.A.~.~._.}..X.X X(.T.h.s.                    c.j.E.{.        ",
"             X).f.9.C.C.f.7.f.T.(.Z.      0.h._.}.(.Y.C.s.r.r.f.h.C.T.~.(.).}.}.).~.A.h.9.          k.z.C.E.T.Z.C.). X          ",
"              }.~.h.8.9.y.8.8.8.l.T.Z.u.  7.8.s.T.!.Z.f.9.r.r.s.h.l.Z.A.~.~.~.~.T.C.f.s.a.  g.C.Y.!.~.~.T.C.l.T. X X].          ",
"                `.~.f.8.8.8.6.4.6.y.f.y.8.y.8.4.$.8.8.9.8.8.8.8.9.s.s.h.h.l.C.h.f.r.9.g.Z.~.)._.(.T.Z.h.h.Z.). X X].            ",
"                  R.Y.f.7.8.6.4.$.$.8.8.y.s.y.8.6.$.@.O.] { { { { $.4.6.8.8.q.5.7.h.~._._.~.T.Z.h.f.f.l.T.).`.`.                ",
"              (.f.0.d.f.8.6.6.$.$.@.@.9.f.f.f.s.y.8.8.$.$.@.O.] ] ] ] | } ` } 5.C.~.~.Z.h.f.s.y.9.s.h.Z.E.S.                    ",
"              `.}.A.9.8.7.6.4.4.$.@.4.s.h.l.C.l.h.f.y.9.6.4.4.$.$.] ] | ' } 5.f.C.h.s.s.8.7.8.9.8.9.9.9.9.u.9.S.                ",
"                `._.T.f.8.6.4.4.4.@.8.h.A.~.~.!.Z.l.h.s.9.8.8.6.4.4.@.] | { 6.8.6.6.6.6.4.6.8.8.8.7.8.y.f.Z._.|.                ",
"                  W.!.Z.s.6.4.$.@.@.r.C.(.}.).~.T.Z.l.h.s.8.7.8.8.4.$.O.] ] @.@.@.$.4.4.6.8.7.y.s.l.T.(.}. X'.                  ",
"                  T.h.s.9.6.4.$.@.$.s.!.}.}.}.}.~.Y.Z.l.f.s.9.8.9.8.8.$.] ] ] @.@.$.$.4.6.8.8.s.h.S.^.'.[.                      ",
"                  '.).Z.s.6.4.$.@.4.h.~.}..X}.}.(.~.Z.l.h.s.r.9.9.8.8.8.] ] ] @.@.@.$.4.4.4.6.8.7.7.u.k.                        ",
"                      R.Z.9.5.$.@.4.h.~.}..X}.}.(.!.A.C.h.f.r.9.s.9.8.8.[ ] ] ] @.@.$.6.6.6.8.s.h.Z.~.`.                        ",
"                        v.y.4.$.@.4.h.~.}..X.X}.).~.A.Z.h.f.r.r.9.y.y.8.[ ] ] ] @.] @.4.8.s.l.E.~.}.|.                          ",
"                        ^.T.f.6.] $.h.~.}..X.X}.(.!.A.Z.h.f.r.r.9.r.9.9.$.{ ] ] @.$.@.$.$.4.0.x.                                ",
"                          W.C.8.#.e.f.!.}..X X}.).!.Z.Z.C.f.9.r.9.r.9.9.s.8.@.4.4.$.8.9.f.h.l.C.D.                              ",
"                                    s.Z.).}..X}.(.!.A.Z.C.f.r.r.s.9.r.f.h.T.h.6.s.Z.h.k.W.^.{.                                  ",
"                                    d.l.~.}.}.).~.!.A.Z.C.h.r.r.9.s.f.l.Z.l.Z.f.8.y.C.                                          ",
"                                      d.A.(.}.}.(.!.A.A.C.f.r.r.r.s.l.A.T.Z.Z.l.f.9.0.                                          ",
"                                      u.h.T.).).(.A.A.C.C.C.s.r.r.h.Z.~.T.T.Z.l.f.s.9.                                          ",
"                                        d.h.T.(.(.!.A.A.C.C.f.r.s.l.!._.).~.Z.l.f.s.y.                                          ",
"                                          9.l.T.~.!.A.A.C.C.h.s.s.l.~.}.}.).T.l.f.9.r.                                          ",
"                                            9.l.A.A.A.C.C.C.f.s.s.h.~.}. X_.T.l.s.9.9.                                          ",
"                                            b.8.f.C.A.C.C.C.C.f.s.h.A.(._.).T.l.s.r.9.w.#.w.w.#.4.4.q.7.8.p.                    ",
"                                                q.y.l.l.C.C.h.f.s.s.l.T.).).T.l.s.r.9.] @.@.$.4.6.6.8.8.u.                      ",
"                                                  @.6.9.s.f.s.s.9.8.y.C.T.~.T.h.s.9.6.@.@.$.$.4.6.7.7.                          ",
"                                                    -...4.6.8.6.6.$.4.8.l.Z.T.h.f.9.@.@.$.6.6.8.8.8.p.                          ",
"                                                    V V 3 O.{ @.O.@.{ @.4.f.h.h.s.0.7.#.$.4.8.9.7.                              ",
"                                                    k A                     d.i.1.                                              ",
"                                                  h h                         B k                                               ",
"                                      n n H S   B h   D k S                     l                                               ",
"                                    K x x z z l h s g v b c A         n v x k A A A                                             ",
"                                    J N v v z j j s j n n S           n b b c n s s s l g S                                     ",
"                                    Q N z n c c g A                   G S g j h s s s j n v c                                   ",
"                                      D z b v m                                 s l j l n g n S                                 ",
"                                        z n k                                     l v z n N H                                   ",
"                                                                                    c N H L ) R                                 ",
"                                                                                    J ( ) R _ ~                                 ",
"                                                                                      Q _                                       ",
"                                                                                                                                "
};
