/* XPM */
static char *_544cba338d442fcfe877e1e63345b0e1Jg8ioSybMoUH0Fv[] = {
/* columns rows colors chars-per-pixel */
"64 64 74 1 ",
"  c #f7f5e4",
". c #9E0000",
"X c #9F0000",
"o c #9E1313",
"O c #9D1414",
"+ c #9C1515",
"@ c #9D1515",
"# c #9D1616",
"$ c #9E1616",
"% c #9F1D1D",
"& c #9E1F1F",
"* c #A00000",
"= c #A10000",
"- c #A20000",
"; c #A30000",
": c #A40000",
"> c #A50000",
", c #A60000",
"< c #A70000",
"1 c #A80000",
"2 c #A90000",
"3 c #AA0000",
"4 c #A71111",
"5 c #A11515",
"6 c #A21414",
"7 c #A01616",
"8 c #A11616",
"9 c #A11717",
"0 c #A21616",
"q c #A31717",
"w c #A71515",
"e c #A91313",
"r c #AC1313",
"t c #A91414",
"y c #AA1515",
"u c #AA1616",
"i c #AB1616",
"p c #AD1414",
"a c #AC1515",
"s c #AD1515",
"d c #AE1414",
"f c #AE1515",
"g c #AC1616",
"h c #AD1616",
"j c #AD1717",
"k c #AE1717",
"l c #A01E1E",
"z c #A11E1E",
"x c #A21E1E",
"c c #AD1818",
"v c #9E2121",
"b c #9F2121",
"n c #9F2323",
"m c #A22020",
"M c #A22121",
"N c #A02222",
"B c #A02323",
"V c #AB2323",
"C c #AD2121",
"Z c #AD2222",
"A c #AC2323",
"S c #AD2323",
"D c #AE2222",
"F c #AF2222",
"G c #AE2323",
"H c #AF2323",
"J c #AB2424",
"K c #AA2525",
"L c #AB2525",
"P c #AB2626",
"I c #AC2424",
"U c #AD2424",
"Y c #AC2525",
"T c #B02323",
/* pixels */
"------------  4ttttttttttttttttttttt  ----------------------  o6",
">>>>>>>>>>>>  rddddddddcdddccdddcddd  ->>>>>>>>>>>>>>>>>>>>>  o6",
">>>>>>>>>>>-  tddtdccdcdcddddddcdcdt  ->>>>>>>>>>>>>>>>>>>>>  o9",
">>>>>>>>>>>>  tdcddtdddtdddccddddddd  >>>>>>>>>>>>>>>>>>>>>-  o9",
">>>>>>>>>>>-  tcdcddddddddddcdcddccd  ->>>>>>>>>>>>>>>>>>>>>  #9",
">>>>>>>>>>>>  cdddcdccdkcccddcddcdcd  >>>>>>>>>>>>>>>>>>>>>-  #9",
">>>>>>>>>>>>  tckkkkcdcccccccckkcdcd  ->>>>>>>>>>>>>>>>>>>>>  #q",
">>>>>>>>>>>>  dckkkcccccdcdccckkcccc  ->>>>>>>>>>>>>>>>>>>>>  o9",
">>->>>>>>>>-  cccccccccccccccccccccc  ->>>->>->>->>>->>>>->-  o#",
"               wttwwwwwwwwwwwwwwtww                             ",
"                                                                ",
" 2222222222222222222222 X>>>>>>>>>>>>>>>>>>>>>X ->>>>>>>>>>>>>>>",
" 2233333333323333333332 X>>>>>>>>>>>>>>>>>>>>>X ->>>>>>>>>>>>>>>",
" 2333333333322333333333 X>>>>>>>>>>>>>>>>>>>>>X ->>>>>>>>>>>>>>>",
" 3333333333333333333332 X>>>>>>>>>>>>>>>>>>>>>X ->>>>>>>>>>>>>>>",
" 3333333333333333333332 X>>>>>>>>>>>>>>>>>>>>>X ->>>>>>>>>>>>>>>",
" 3333333333333333333333 X>>>>>>>>>>>>>>>>>>>>>X ->>>>>>>>>>>>>>>",
" 3333333333333333333333 X>>>>>>>>>>>>>>>>>>>>>X ->>>>>>>>>>>>>>>",
" 3333333332233333333333 X>>>>>>>>>>>>>>>>>>>>>X ->>>>>>>>>>>>>>>",
" 2222222222222222222223  >->>->>->>->>->>->>->X  ->>>->>>->>->>-",
"                                                                ",
"---->----  222222222222222222222>  ----------------------  -----",
">>>>>>>>>  3223322333322333322332  >>>>>>>>>>>>>>>>>>>>>-  >>>>>",
">>>>>>>>>  322332233332233332233>  >>>>>>>>>>>>>>>>>>>>>-  >>>>>",
">>>>>>>>>  2333333333333333333332  >>>>>>>>>>>>>>>>>>>>>-  >>>>>",
">>>>>>>>-  233333333333333333333>  >>>>>>>>>>>>>>>>>>>>>-  >>>>>",
">>>>>>>>>  3333333333333333333332  >>>>>>>>>>>>>>>>>>>>>-  ->>>>",
">>>>>>>>>  333333333333333333333>  >>>>>>>>>>>>>>>>>>>>>-  >>>>>",
">>>>>>>>>  2333333333333333333332  >>>>>>>>>>>>>>>>>>>>>-  ->>>>",
">>>>>>>>-  233333333333333333333>  >>>>>>>>>>>>>>>>>>>>>-  >>>>>",
"                                                                ",
"                                                                ",
"                                                                ",
" >222222222222222222222>  ->>->>>>->>>->>->->>-  vlllllllllxxllx",
" >333333333333333333333> ->>>>>>>>>>>>>>>>>>>>>X lllxxxlxxxxxxxx",
" >333333333333333333333> X>>>>>>>>>>>>>>>>>>>>>X Mmmmmmlmmmmmmmm",
" -223333333333333333333> X>>>>>>>>>>>>>>>>>>>>-X vMMMlMMMMMMmmmm",
" >333333333333333333333> ->>>>>>>>>>>>>>>>>>>>>X MMMMMMMMMMMmmmm",
" >333333333333223333332> ->>>>>>>>>>>>>>>>>>>>>X vMMMMMMMMMMmBMM",
" >333333333333323333222> X>>>>>>>>>>>>>>>>>>>>>X vMnBBBBBvBBBBBB",
" >223333222333223322222> ->>>>>>>>>>>>>>>>>>>>>X vnnnnnnnnnnnnnn",
" >2222222222222222222222  ->>-->>>>-->>>->->>>-  vBBBBBBMBBBBBnM",
"                                                                ",
"------->-X  FFFFFFFFFVFFVFFFFFFVYY  ---------------------X  ----",
">>>>>>>>>-  FTTTTTTTFTTTTTTTTTTTTF  >>>>>>>>>>>>>>>>>>>>>-  >>>>",
">>>>>>>>>-  FFFTYFFTFYFTYFTTFTTTFF  >>>>>>>>>>>>>>>>>>>>>-  >>>>",
">>>>>>>>>-  FTTTTTTTTTTTTTTTTTYTTF  >>>>>>>>>>>>>>>>>>>>>-  >>>>",
">>>>>>>>>-  FYYFFTFYYFYYYFYYFYFKYF  >>>>>>>>>>>>>>>>>>>>--  >>>>",
">>>>>>>>>-  VFKKKVKFKKKKVKFVVVVVFY  >>>>>>>>>>>>>>>>>>>>>-  >>>>",
">>>>>>>>>-  VKKVKFVKKVFKKVVKKFKVKY  >>>>>>>>>>>>>>>>>>>>--  >>>>",
">>>>>>>>>-  VVVKVKKFVKKVKFKVVKKFVV  >>>>>>>>>>>>>>>>>>>>>-  >>>>",
">>->->>>>-  VKKFKVKKKFVKKKVKKVKKFK  >>->->>->>->>>->>>->>-  >>->",
"                                                                ",
"                                                                ",
"KKYKYKYKKYKYKYKYKYKY  ->>>>>>>>>>>>>>>>>>>>>  >>>>>>>>>>>>>>>>>>",
"KYKYKYKYYKYKYKYKYKYK  >>>>>>>>>>>>>>>>>>>>>>  >>>>>>>>>>>>>>>>>>",
"KYKYKYKYKYKYKYKYKYKY  ->>>>>>>>>>>>>>>>>>>>-  >>>>>>>>>>>>>>>>>>",
"YKYKYKYKYKYKYKYKYKYK  ->>>>>>>>>>>>>>>>>>>>>  ->>>>>>>>>>>>>>>>>",
"KYKYKYKYKYKYYKKYKYKF  ->>>>>>>>>>>>>>>>>>>>>  >>>>>>>>>>>>>>>>>>",
"YKYKYKYKYKYKPPYKPKKK  >>>>>>>>>>>>>>>>>>>>>-  >>>>>>>>>>>>>>>>>>",
"KYKYKYKYYKYKKYKYKYKY  >>>>>>>>>>>>>>>>>>>>>>  ->>>>>>>>>>>>>>>>>",
"YYYYYYYYYYYYYYYYYYYK  ->>>>>>>>>>>>>>>>>>>>>  >>>>>>>>>>>>>>>>>>",
"KKKKKKKKKKKKKKKKKKKK  ->>>>>>>>>>>>>>>>>>>>-  >>>>>>>>>>>>>>>>>>",
"                                                                "
};
