/* XPM */
static char *_e2c9fd9cf76496cc8d83e2c31284867FLWalgdXr81SgEuS[] = {
/* columns rows colors chars-per-pixel */
"100 100 91 1 ",
"  c #f7f5e4",
". c #980000",
"X c #990000",
"o c #9B0000",
"O c #9D0000",
"+ c #9E0000",
"@ c #9F0000",
"# c #951515",
"$ c #9B1313",
"% c #9B1414",
"& c #9A1515",
"* c #9B1515",
"= c #9B1616",
"- c #9C1616",
"; c #991E1E",
": c #9F1F1F",
"> c #A00000",
", c #A10000",
"< c #A20000",
"1 c #A30000",
"2 c #A40000",
"3 c #A50000",
"4 c #A60000",
"5 c #A70000",
"6 c #A80000",
"7 c #A90000",
"8 c #AA0000",
"9 c #A41313",
"0 c #A21515",
"q c #A11616",
"w c #A21616",
"e c #A31616",
"r c #A21717",
"t c #A31717",
"y c #A41515",
"u c #A51515",
"i c #A41717",
"p c #A61616",
"a c #AA1212",
"s c #AC1313",
"d c #A91414",
"f c #A91515",
"g c #AA1414",
"h c #AA1515",
"j c #A81616",
"k c #A81717",
"l c #AA1616",
"z c #AC1515",
"x c #AD1515",
"c c #AE1414",
"v c #AE1515",
"b c #AC1616",
"n c #AD1616",
"m c #AC1717",
"M c #AE1616",
"N c #AE1717",
"B c #A01E1E",
"V c #A11E1E",
"C c #A01F1F",
"Z c #A21E1E",
"A c #A21F1F",
"S c #AE1818",
"D c #9F2222",
"F c #9E2323",
"G c #A02121",
"H c #A22121",
"J c #A02222",
"K c #A02323",
"L c #A12323",
"P c #A22222",
"I c #A52121",
"U c #A72121",
"Y c #A52222",
"T c #A72222",
"R c #A82121",
"E c #AB2222",
"W c #AB2323",
"Q c #AC2121",
"! c #AD2121",
"~ c #AC2323",
"^ c #AD2323",
"/ c #AE2323",
"( c #AF2323",
") c #AB2424",
"_ c #AC2424",
"` c #AD2424",
"' c #AC2525",
"] c #AD2525",
"[ c #AE2424",
"{ c #AC2626",
"} c #B02323",
/* pixels */
"                       999999999999999999999999999999999                                            ",
"3333333333333333333   scsNccccccccccccccccccccccccccccccs   3333333333333333333333333333333333   $0p",
"3333333333333333333   jscccccccccNcccNNcNcNccNcccNcNNccNN   3333333333333333333333333333333333   =00",
"3333333333333333331   dNNsNssNsNNssNNsNssNsNNscNssNssNcsN   1333333333333333333333333333333331   =00",
"3333333333333333333   dNsNsNsNNsNsNsssNssNsssNNsNssNsNsNN   3333333333333333333333333333333331   =p0",
"3333333333333333333   dsNsNsNssNsNsNNccNNcNcNccNcNcNNcNsj   1333333333333333333333333333333333   =00",
"3333333333333333333   dNccNccNccNcNccNNcNcssccscNNssssNNs   3333333333333333333333333333333333   =09",
"3333333333333333333   jssNsNNssNNcsNssNcsNNNNNNjNsNNNNNsN   1333333333333333333333333333333331   =0V",
"3333333333333333333   dNNNNNNNNNNsNNNNNNjNsNNNNNNNdNNNNNN   3333333333333333333333333333333331   -p0",
"3333333333333333331   NNNsNsNNNNNNNNNNNNNNNNNNNNNNNNNNNNN   1333333333333333333333333333333333   -00",
"3333333333333333333   jNNNNNNNNNNNNNNNNNNNNNNNNNNNNNNNNNj   3333333333333333333333333333333331   =0V",
"3333333333333333331   jNNNNNNNNNNNNNNNNNNNNNNNNNNNNNNNNNN   1333333333333333333333333333333333   =00",
"3333333333333333333   jNNNNNNNNNNNNNNNNNNNNNNNNNNNNNSNNNN   3333333333333333333333333333333333   =0-",
"3333333333333333331   NNNNNNSSSSNNSSSSSSNNSSSSSSNNNNSSSSj   1333333333333333333333333333333331   =00",
"+++++++++++++++++++   ppjjpjjjjjjjjjjjjjjjjjjjjjjjpjkkkkp   ++++++++++++++++++++++++++++++++++   #--",
"                                                                                                    ",
"                                                                                                    ",
" 3388388388388833838883838883838838   +3313131333313133113133113133113131   133131313131313131331313",
" 8888888888888888888888888888888888   +3333333333333333333333333333333331   133333333333333333333333",
" 8888888888888888888888888888888888   +333333333333333333333333333333333+   333333333333333333333333",
" 3888888888888888888888888888888888   1333333333333333333333333333333333+   333333333333333333333333",
" 8888888888888888888888888888888888   +3333333333333333333333333333333331   133333333333333333333333",
" 8888888888888888888888888888888888   +333333333333333333333333333333333+   333333333333333333333333",
" 8888888888888888888888888888888888   +3333333333333333333333333333333331   133333333333333333333333",
" 8888888888888888888888888888888888   +3333333333333333333333333333333331   333333333333333333333333",
" 8888888888888888888888888888888888   1333333333333333333333333333333333+   133333333333333333333333",
" 3888888888888888888888888888888888   +333333333333333333333333333333333+   333333333333333333333333",
" 8888888888888888888888888888888888   +3333333333333333333333333333333331   133333333333333333333333",
" 8888888888888888888888888888888888   +333333333333333333333333333333333+   133333333333333333333333",
" 8888888888888888888888888888888888   13333333333333333333333333333333331   333333333333333333333333",
" 8888888888888888888888888888888888   +1333333333333333333333333333333331   333333333333333333333333",
"                                                                                                    ",
"                                                                                                    ",
"1+111+111+1111   8888383888383883838883838883838888   +111+11111111111+11111+11111+11111+   +1111111",
"33333333333333   8888888888888888888888888888888888   13133333133333133333133333133333131   33331333",
"33333333333333   8888888888888888888888888888888888   +3333333333333333333333333333333331   13333333",
"33333333333333   8888888888888888888888888888888888   +333333333333333333333333333333333+   33333333",
"33333333333333   8888888888888888888888888888888888   13333333333333333333333333333333331   13333333",
"33333333333333   8888888888888888888888888888888888   13333333333333333333333333333333331   33333333",
"33333333333333   8888888888888888888888888888888888   11333333333333333333333333333333331   13333333",
"33333333333333   8888888888888888888888888888888888   13333333333333333333333333333333331   13333333",
"33333333333333   8888888888888888888888888888888888   +3333333333333333333333333333333331   33333333",
"33333333333333   8888888888888888888888888888888888   +3333333333333333333333333333333331   13333333",
"33333333333333   8888888888888888888888888888888888   13333333333333333333333333333333331   33333333",
"33333333333333   8888888888888888888888888888888888   1333333333333333333333333333333333+   33333333",
"33333333333333   8888888888888888888888888888888888   11333333333333333333333333333333331   13333333",
"33333333333333   8888888888888888888888888888888888   13333333333333333333333333333333331   33333333",
"                                                                                                    ",
"                                                                                                    ",
"                                                                                                    ",
"                                                                                                    ",
"   1111111111111111111111111111111111   ++o+++++++++++++++++++++++++++++++    ;;;;;;;;;;;;;;;;;;;;;;",
"  18888888888888888888888888888888888   1333333333333333333333333333333333   :AVAAA:VVVVAAAVVVVZAAAA",
"  38888888888888888888888888888888883   1333333333333333333333333333333333   AAAAAVVAAVVAAVVAAVZAAAA",
"  38888888888888888888888888888888888   3333333333333333333333333333333333   :AAAAVVAAAAAAZZAAAAAAAA",
"  18888888888888888888888888888888883   1333333333333333333333333333333333   PPAATZZAPPAPPTZPPAPAPPA",
"  18888888888888888888888888888888883   3333333333333333333333333333333333   :APPPPAPPPAPAPPPAAPPPPA",
"  38888888888888888888888888888888883   1333333333333333333333333333333333   DPPPAPAPAPPPAPAPPPPAAPP",
"  38888888888888888888888888888888888   3333333333333333333333333333333333   PPPPPPPPPPPPPPPPPPPPPPP",
"  18888888888888888888888888888888883   1333333333333333333333333333333333   DPPPAPPAPPAPPPPAPPAPPPA",
"  38888888888888888888888888888888888   3333333333333333333333333333333333   PPPPPPPPPPPPPPPPPPPPPPP",
"  18888888888888888888888888888888883   1333333333333333333333333333333333   DLLLLLLPDLFFLLLLFLLPDPD",
"  38888888888888888888888888888888883   3333333333333333333333333333333333   DLLLFFLLLLFFLLLLFLFLFFL",
"  18888888888888888888888888888888888   1333333333333333333333333333333333   PFFLLLLFFLLLLFFLLLFLLLF",
"  38888888888888888888888888888888883   3333333333333333333333333333333333   PLLLLLLLLLLLLLLLLLLLLLL",
"   8888388838888838888888388838888883   3111111111111111111111111111111111    FFFFFFFFFFFFFFFFFFFFFF",
"                                                                                                    ",
"                                                                                                    ",
"131331311313311o  ![[}}[}[}[!}}[}[}!}[}}[}[}[}}}!}[}[   1131313313133131313113133131313113   +331131",
"333333333333333o  !}}}}}}}}}}}}}}}}}}}}}}}}}}}}}}}}}}   3333333333333333333333333333333333   1333333",
"333333333333333o  !}}}}}}}}}}}}}}}}}}}}}}}}}![}!}}}[[   3333333333333333333333333333333333   1333333",
"333333333333333o  !!!}}[}!}}!}[}[}}!}[!}[}!}}}[}}[}!}   3333333333333333333333333333333333   1333333",
"333333333333333o  !}}}}}}}}}}}}}}}}}}}}}}}}}}}}}}}}}[   3333333333333333333333333333333333   1333333",
"333333333333333o  !}}}}}}}}}}}}}}!}}}}[[}}}[}}}!}}}}}   3333333333333333333333333333333333   1333333",
"333333333333333o  E![!![[[![[[[[[[)[[[)[[[[[[[[[[[[)[   3333333333333333333333333333333333   1333333",
"333333333333333o  [)[[))[)[))[)))[)[)[)[)E)!)))[))!)!   3333333333333333333333333333333333   1333333",
"333333333333333o  ![))[[[))))))[[))))))[[[))[))))))[[   3333333333333333333333333333333333   1333333",
"333333333333333o  [)[)))))[[)[))))[)[[)))))[))[))[)[[   3333333333333333333333333333333333   1333333",
"333333333333333o  ))))))))))))))))))))))))))))))))))[   3333333333333333333333333333333333   1333333",
"333333333333333o  E))[))[)))[))[[))[)))[))[)[))[)[))[   3333333333333333333333333333333333   1333333",
"313331333133311o  [)))[)[))[)))))[)))))[)))))[))[)))[   3133313331333333313331333333333133   1333331",
"111111111111111o  E![[[)[!![[[[!![[[[!![[[)!E[)!E)[[[   1111111111111111111111111111111111   1111111",
"                                                                                                    ",
"                                                                                                    ",
"[{[{[{[{[{[{[{[{[[[{[{[{{[{[[[{T  +3333333333333333333333333333333333   3333333333333333333333333333",
"{){[{){){){[{[{){){[{){[){){)[)T  +3333333333333333333333333333333333   3333333333333333333333333333",
"){){[{){){){){[{){){){){{[{[{[[T  +3333333333333333333333333333333333   3333333333333333333333333333",
"{){[{){[{){[{){){[{){[{)){){)))T  o3333333333333333333333333333333333   3333333333333333333333333333",
"[{){){){[{){[{){{){[{[{){){[{){T  +3333333333333333333333333333333333   3333333333333333333333333333",
"{){[{[{){){){){[[{){){){[{){){)T  +3333333333333333333333333333333333   3333333333333333333333333333",
"){){[{[{){){){){{){){){[{){){))T  +3333333333333333333333333333333333   3333333333333333333333333333",
"{[{){){){[{){[{)){){[{){){[{)[)P  o3333333333333333333333333333333333   3333333333333333333333333333",
"){[{){[{){){){[{{{){{[{)){){{[{T  +3333333333333333333333333333333333   3333333333333333333333333333",
"{){){){){[{[{){)[{{{{{{{{{{{{{{Y  +3333333333333333333333333333333333   3333333333333333333333333333",
"[{){){){){[{[{){){){{){){[{){))T  +3333333333333333333333333333333333   3333333333333333333333333333",
"{){[{){[{){){){[{[{[[{[{[{[{[[[T  +3333333333333333333333333333333333   3333333333333333333333333333",
"[{[{[{[{[{[{[{[{[{[{[{[{[{[{[{)Y  +3333333333333333333333333333333333   3333333333333333333333333333",
"{{{{{{{{{{{{{{{{{{{{{{{{{{{{{{{Y  +3333333333333333333333333333333333   3333333333333333333333333333",
"                                                                                                    ",
"                                                                                                    "
};
