/* XPM */
static char *_b0fbb3c45264d828d65400e8a978d34KXUpw3oRrHpuyek0[] = {
/* columns rows colors chars-per-pixel */
"64 64 200 2 ",
"   c #f7f5e4",
".  c #A61F01",
"X  c #A91F01",
"o  c #B41D02",
"O  c #BA1B02",
"+  c #B81204",
"@  c #872700",
"#  c #8C2701",
"$  c #872800",
"%  c #8B2A01",
"&  c #932602",
"*  c #9B2402",
"=  c #942804",
"-  c #9F2709",
";  c #8F3000",
":  c #8E3109",
">  c #923501",
",  c #953A00",
"<  c #993E00",
"1  c #9C350D",
"2  c #9B3A0A",
"3  c #94340B",
"4  c #993C12",
"5  c #973C12",
"6  c #A32202",
"7  c #AB2103",
"8  c #A4260D",
"9  c #A7280B",
"0  c #B72709",
"q  c #AB2511",
"w  c #AC2B14",
"e  c #A42F12",
"r  c #B42515",
"t  c #BC251A",
"y  c #BC2A1D",
"u  c #B62617",
"i  c #A33E17",
"p  c #AA3C16",
"a  c #AC3D1C",
"s  c #A93616",
"d  c #B53413",
"f  c #BE2A20",
"g  c #B73D24",
"h  c #C40202",
"j  c #CB0402",
"k  c #C70903",
"l  c #D40503",
"z  c #DB0603",
"x  c #DC0C01",
"c  c #D70E00",
"v  c #C51500",
"b  c #CB1502",
"n  c #C51903",
"m  c #C91907",
"M  c #D21302",
"N  c #DB1304",
"B  c #E40704",
"V  c #EB0703",
"C  c #E40A02",
"Z  c #EC0905",
"A  c #F40400",
"S  c #FF0000",
"D  c #F50A06",
"F  c #FA0A06",
"G  c #E41005",
"H  c #E71307",
"J  c #CB250A",
"K  c #C2241D",
"L  c #EF1F38",
"P  c #F31F3A",
"I  c #FA1F3E",
"U  c #C62420",
"Y  c #CC2324",
"T  c #C52A23",
"R  c #D52329",
"E  c #DD222D",
"W  c #D22227",
"Q  c #E0212F",
"!  c #E42131",
"~  c #EA2035",
"^  c #EF2038",
"/  c #9B4300",
"(  c #9E4B00",
")  c #9E430F",
"_  c #9F4215",
"`  c #9E4319",
"'  c #A14700",
"]  c #A34C01",
"[  c #A24808",
"{  c #A35300",
"}  c #AA5401",
"|  c #A65B00",
" . c #AA5D00",
".. c #AC560B",
"X. c #B15E02",
"o. c #A44719",
"O. c #AB5416",
"+. c #B4551A",
"@. c #A96000",
"#. c #B46300",
"$. c #BA6C00",
"%. c #BE7100",
"&. c #B76615",
"*. c #AA4C24",
"=. c #B64A28",
"-. c #AB5424",
";. c #AC5129",
":. c #AC592E",
">. c #A75020",
",. c #B15D2A",
"<. c #B55A27",
"1. c #B35E34",
"2. c #B5612D",
"3. c #B86829",
"4. c #B36234",
"5. c #B56639",
"6. c #BA6D3A",
"7. c #BA6537",
"8. c #BF723E",
"9. c #D45304",
"0. c #C17500",
"q. c #C57B00",
"w. c #CA6405",
"e. c #CE7329",
"r. c #C26D38",
"t. c #C2743C",
"y. c #C4783B",
"u. c #C46623",
"i. c #FF1E41",
"p. c #FE1E40",
"a. c #FD1E40",
"s. c #FF1E41",
"d. c #BD6E42",
"f. c #BE7445",
"g. c #C57944",
"h. c #C4794A",
"j. c #C57D50",
"k. c #C98100",
"l. c #F2BB16",
"z. c #EEAC0B",
"x. c #D49025",
"c. c #E5883D",
"v. c #FECB0D",
"b. c #CA8347",
"n. c #CE8C5E",
"m. c #C98455",
"M. c #D28A53",
"N. c #D9965A",
"B. c #EB8F41",
"V. c #EE9243",
"C. c #F29745",
"Z. c #F59B46",
"A. c #F89F47",
"S. c #E19A5E",
"D. c #FBA247",
"F. c #FDA748",
"G. c #FEA949",
"H. c #CF8F60",
"J. c #D18E61",
"K. c #DD9E62",
"L. c #D79A6B",
"P. c #D79767",
"I. c #E29D63",
"U. c #DEA575",
"Y. c #DFA369",
"T. c #E9A566",
"R. c #E6A76D",
"E. c #ECB26E",
"W. c #E3AC7B",
"Q. c #E7AB73",
"!. c #EBB37D",
"~. c #EDB677",
"^. c #F2B374",
"/. c #F5BC79",
"(. c #FBBD7C",
"). c #F3B875",
"_. c #F8C37D",
"`. c #E7B383",
"'. c #E9B685",
"]. c #EDBC8B",
"[. c #F4BF89",
"{. c #F4BC84",
"}. c #F6C384",
"|. c #FCC283",
" X c #FECC85",
".X c #F5C28B",
"XX c #FEC68A",
"oX c #FFCB8C",
"OX c #F7C98C",
"+X c #FFD08E",
"@X c #F2C593",
"#X c #FFCC93",
"$X c #F7CB99",
"%X c #FBCE9B",
"&X c #F5C897",
"*X c #FFD294",
"=X c #FED49C",
"-X c #FED5A3",
";X c #FFD8A6",
":X c #FFD8A6",
/* pixels */
"                                            & # . 6 7 X X X X 7 . . 7 X 7 6 X X X X X . X . 8 6 #                               ",
"                                            E * Z F z B D D D F z z D D D z Z D D D D Z j D D D &                               ",
"                                          q a.y M F Z l F F F F Z j F F F B l F F F F D h D D F O $                             ",
"                                        # ! a.Q 6 D D j F F F F D h Z F F D h D F F F F z B F F G &                             ",
"                                        t i.i.P - N F l B F F F F z z F F F l z F F F F Z j F F D 6                             ",
"                                      = ~ i.i.i.U O F Z k F F F F D j D F F D h D F F F F h D F F b #                           ",
"                                      u I i.i.i.P 6 F F h Z F F F F l V F F F l Z F F F F z l F F D &                           ",
"                                    = ^ i.a.a.a.a.u N F B z F F F F B j F F F Z l F F F F D h D F F 0 #                         ",
"                                    U i.i.! E a.a.R 7 F D j F F F F F h Z F F F h Z F F F F l Z F F N &                         ",
"                                  = L i.a.w w a.a.P 6 H D j B F F F F z B F F F z l F F F F B l F F D *                         ",
"                                  Y a.a.R j.:.L i.i.K b F V j F F F F V j F F F D j F F F F D h D F F n #                       ",
"                                - a.a.a.g $XL.T i.i.~ 7 D D h D F F F F j Z F F F l V F F F F l x F F Z *                       ",
"                              $ W a.a.Q H.;X-Xa a.a.I q C F z B F F F F z l F F F V j F F F F D h D F D 7                       ",
"                              - a.a.a.a @X;X;Xh.~ a.a.Y 0 F D h F F F F D h D F F D h Z F F F F l D F F M #                     ",
"                            # ! a.a.R H.;X;X;XU.f i.a.P 8 Z F h V F F F F l V F F F B l F F F F z z F F F *                     ",
"                            8 I a.a.=.$X;X;X;X$Xi P a.a.u M F B l F F F F Z l F F F D j F F F F D h F F F n $                   ",
"                          # Q i.i.R H.;X;X;X;X;Xd.W a.a.L X F F j D F F F A + F F F F l B F F F F j B F F H &                   ",
"                          u a.i.P a $X;X;X;X;X;X].r a.a.P 8 Z F l V F F F F z l F F F Z h F F F F Z l F F F 7                   ",
"                        = L a.a.R L.;X;X;X;X;X;X-X;.P a.a.K n F V j F F F F D h F F F F j V F F F D j D F F M $                 ",
"                        t i.a.a.=.$X;X;X;X;X;X;X;Xm.Y a.a.P 6 D D h D F F F F l Z F F F B l F F F F l B F F F *                 ",
"                      = P i.i.U H.;X;X;X;X;X;X;X;X`.e I i.a.r G F z z F F F F B l F F F D h F F F F Z h F F F n                 ",
"                      U a.a.P a %X;X;X;X;X;X;X;X;X-X*.Q i.a.E O F D j F F F F D h D F F F l z F F F F h V F F G &               ",
"                    = P a.i.W U.;X;X;X;X;X;X;X;X;X;XH.t a.i.P - D F j Z F F F F l z F F F D h F F F F B z F F D 6               ",
"                    Y i.i.P ;.$X;X;X;X;X;X;X;X;X;X;X@Xs a.i.a.t m F B l F F F F D j F F F F j V F F F D j F F F M #             ",
"                  8 P a.i.f L.;X;X;X;X-X-X=X-X;X;X;X-X1.E a.a.L X D D h D F F F F j F F F F B l F F F F j Z F F D *             ",
"                $ W a.a.^ =.-X;X;X`.d.s 0 p f.].;X;X;XH.q a.i.i.u Z F l B F F F F z z F F F F h D F F F B j F F F O             ",
"                8 a.a.i.T U.;X;XL.w V A S A c i '.;X;X@X1 L i.a.R v F D j D F F F A + F F F F l l F F F F h D D F N &           ",
"              & E a.a.^ ;.$X;XU.0 A S S S S S x ` ].;X;X5.R i.a.L 8 D D j D F F F F l B F F F D j F F F F z B F F D 6           ",
"              q I a.a.y U.;X@Xp A S S S S S S S b 5.-X;XW.8 a.a.I r M F z l F F F F Z l F F F F l Z F F F Z j F F F b $         ",
"            $ ! i.a.L 1.-X;XP.c S S S S S S S S S 9 '.;X&X` ~ a.I L O D D h D F F F F j F F F F B j F F F D h D F F D *         ",
"            u a.i.a.f U.;X;X=.A S S S S S S S S S c 5.;X;X5.t a.a.I r D D l Z F F F F l z F F F D h D F F F z z F F F o         ",
"          = L a.i.~ ;.-X;X@XX S S S S S S S S S S V 1 @X;XU.8 P a.a.U M F Z l F F F F V h F F F F z z F F F D h D F F N #       ",
"          t a.a.a.y `.;X;XL.v S S S S S S S S S S S 7 L.;X;X4 ! a.a.L 6 D D h D F F F F j Z F F F F j D F F F l Z F F F *       ",
"        = P a.a.L 1.-X;X;Xh.x S S S S S S S S S S S M f.;X;Xm.w i.a.a.r G F l z F F F F V x F F F F l V F F F Z l F F F b       ",
"        r E ! E 8 U.;X;X;X4.V S S S S S S S S S S S V >.-X;X`.3 P a.a.E n F D h D F F F D h F F F F F F F F F D z Z H C M &     ",
"      # $ # # # : &X;X;X-X:.S S S S S S S S S S S S A 8 $X;X%X` U a.I L 9 Z D k H D H D N + m J J J K d d p p i = & & &         ",
"                  @X;X;X=X;.S S S S S S S S S S S S A 7 '.;X;Xm.= 8 q 8 = d =.<.r.r.g.j.M.N.P.I.R.Q.W.{.{.[.%X[.4               ",
"                : @X;X;X=X>.V V S S S S S S S S S S S o P.:X;X-X=X&X:.I.)./.(.(.(.|.{.{.XXXXXXXXoXoXoX#X#X#X#X[.4               ",
"                : [.;X;X$Xx.z.w.B S S S S S S S S S S O j.-X:X:X;X-X1.T.(.(.(.(.|.|.|.|.XXXX#XXXoX#X#X#X#X#X=X[.4               ",
"                : ].-X-X Xl.v.v.0 S S S S S S S S S S v 5.:X:X:X-X-X4.T.(.(.(.|.|.{.XX[.XXXXXXXXoX#XoX#X#X%X#X@X4               ",
"                : `.=X=XOXl.v.z.n S S S S S S S S S S b *.-X:X=X-X=X5.T.(.(.(.(.|.|.|.|.|.XXXXXXXX#XoX#X#X#X%X[.4               ",
"                : !.=X-X-X3.9.J S S S S S S S S S S S M o.=X=X-X=X=X5.T.(.(.(.(._.{.|.|.XXXXXXoXXXXX#X#X#X%X=X[.4               ",
"                % W.=X=X=X4.C S S S S S S S S S S S S c o.#X=X=X=X=X5.T.(.(._.{.|.|.|.XX|.XXXXXX#XXX#X#X#X#X#X.X4               ",
"                : Q.*X=X=Xf.M S S S S S S S S S S S S c ` &X=X*X*X=X5.T.(.(.(.(.|.|.|.|.XXXXXXoXXX#X#X#X#X#X#X[.4               ",
"                % Q.*X*X*Xm.v S S S S S S S S S S S S x _ OX*X*X*X*X6.T./.(.(._.(.|.|.|.|.XXXXXXXXoXoX#X#X#X=X[.4               ",
"                % Y.*X*X*XK.O S S S S S S S S S S S S x _ OX*X*X*X#X6.T./.(.(.(.(.|.|.|.|.XXXXXXoXoXoX#X#X#X#X[.4               ",
"              $ % Y.+X+X*X~.6 V V A S S S S S S S S S x _ }.+X*X*X+X6.T./.(.(.(.|.{.|.|.XXXXXXoXXX#X#XoX#X#X#X[.4               ",
"        $ # / $.< N.+X+X+XoXo.& * * . o b c A S S S S c 4 _.+X+X+XoX8.T.(.(.(.(.(.|.|.|.|.XX|.XXXXXXXX#X#X#X#X[.2 $ # $ $       ",
"    # ,  .0.q.k.< M. XoX X+X+X X).N.M.6.2.O._ 1 6 o v O `  X+X+XoXoXr.T.(.(.(.(.(.|.|.XX|.|.XXXXXXXX[.Q.P.g.<.' } #.{ < # $ $   ",
"  , , > < ] #.$.#...O.,.y.N.E._._._. X X X}._./.~.K.b.4.3._. X X X Xt.T.(.(.(.(.{.(.|.|.|.|.{.^.n.<.o.[ X.0.0.#.' > ; < ( / #   ",
"  / @. .| { ( / / / ] { } }  .X.&.3.8.g.M.K.E._. X X X X_. X X X X Xt.T.).(.(.(._.(.^.N.h.2.O.{ X.$.0.X.{ / , < ( { | @.@./ $   ",
"  / |  . .@.@. . . . .| ( / , > ( } #.%.$. ...) O.2.c.N.E.)._._. X Xy.T.).^.R.I.t.O.2 ] $.q.%.$.} < > < ( | | @. . .| | ] >     ",
"  $ ; > , < ( { | @.@.@. .@.@.| | { ( / / / ( } | @.$.@. ...O.-.2.t.O.8.2.O...} $.0.q.$.} / / / ] { | @.@.@.@.| ( / > %         ",
"            $ $ % % , ( ( { | @.| @.| @. . .| ( / / > / } #.$.%.$.#.} } $.q.0.0.X.' , < ( | @.@.@.@. .| { / > % $               ",
"                          % % ; , < ( {  .@.| @.@.@.@.| { { / / < < ] }  .' / ( { {  . .@.@.@.@.{ / > ;                         ",
"                                    $ % % ; / / ( { | | @.@.@.@.@.| { ] ( |  .@.@. . . .{ ( < ; $                               ",
"                                                  % % > ; / ] {  .@. . .@.@.@.@.| ( < ; %                                       ",
"                                                        $ +.u.+.[ ) / / ( ( / , %                                               ",
"                                                        # e.G.D.Z.B.c.3 $                                                       ",
"                                                        % e.D.D.A.C.V.1                                                         ",
"                                                        % e.G.D.Z.C.V.2                                                         ",
"                                                        % e.G.D.Z.C.V.1                                                         ",
"                                                        # e.G.D.D.C.C.2                                                         ",
"                                                        % e.G.D.A.C.C.2                                                         "
};
