/* XPM */
static char *d082c779b90f4951b9298e4818f56defexgRAaSBWSeaPfwp[] = {
/* columns rows colors chars-per-pixel */
"64 64 170 2 ",
"   c #f7f5e4",
".  c #5E6C0E",
"X  c #5E700A",
"o  c #5E6C10",
"O  c #606F0F",
"+  c #746F10",
"@  c #647411",
"#  c #6A7713",
"$  c #6A7B14",
"%  c #737E19",
"&  c #A50504",
"*  c #AD0303",
"=  c #AE0A09",
"-  c #B50404",
";  c #BB0403",
":  c #B60A06",
">  c #BA0905",
",  c #B50E08",
"<  c #BB0C0B",
"1  c #BD120D",
"2  c #AA1614",
"3  c #B31414",
"4  c #B21813",
"5  c #BB1915",
"6  c #B51D1D",
"7  c #BD1B18",
"8  c #BB1612",
"9  c #813B08",
"0  c #BA2828",
"q  c #BD2927",
"w  c #C40303",
"e  c #CB0201",
"r  c #C50806",
"t  c #C80A07",
"y  c #C40D0B",
"u  c #CC0C0A",
"i  c #D30303",
"p  c #DB0505",
"a  c #D40807",
"s  c #DD0B0A",
"d  c #C5140C",
"f  c #CC100D",
"g  c #CA190F",
"h  c #C51413",
"j  c #CB1614",
"k  c #C61914",
"l  c #C61B19",
"z  c #CD1C19",
"x  c #C81A14",
"c  c #D11010",
"v  c #DD1413",
"b  c #DB1A14",
"n  c #DF1B1B",
"m  c #D11C1B",
"M  c #E20D0C",
"N  c #E5100F",
"B  c #E41211",
"V  c #E31C16",
"C  c #CB221C",
"Z  c #C8371C",
"A  c #E6211E",
"S  c #E8211A",
"D  c #E72A1E",
"F  c #C42724",
"G  c #CE2422",
"H  c #C42D2B",
"J  c #CB2B28",
"K  c #D02523",
"L  c #D32B26",
"P  c #D22D2C",
"I  c #DB2D2A",
"U  c #CB3120",
"Y  c #CB3C2F",
"T  c #C73A34",
"R  c #CA3934",
"E  c #DB3835",
"W  c #D73936",
"Q  c #E62221",
"!  c #E62C22",
"~  c #E63124",
"^  c #E83628",
"/  c #EA3828",
"(  c #EA3227",
")  c #E13B39",
"_  c #E83C3A",
"`  c #845911",
"'  c #BA401F",
"]  c #A25919",
"[  c #A5651A",
"{  c #BE6820",
"}  c #AB7920",
"|  c #C3562E",
" . c #CB413A",
".. c #DC453E",
"X. c #D0443D",
"o. c #EB4B3A",
"O. c #CF4941",
"+. c #DA4641",
"@. c #D34A44",
"#. c #DC4B44",
"$. c #D84E4B",
"%. c #D24946",
"&. c #CF544E",
"*. c #DE554C",
"=. c #DC5146",
"-. c #DB5F5C",
";. c #D55B55",
":. c #E84644",
">. c #E75451",
",. c #E15D55",
"<. c #DA665F",
"1. c #F0614E",
"2. c #EA625E",
"3. c #F06753",
"4. c #DF716C",
"5. c #DC7771",
"6. c #EF6D64",
"7. c #E66B66",
"8. c #E7726C",
"9. c #EE7070",
"0. c #E97D75",
"q. c #F07C74",
"w. c #6E8015",
"e. c #6B831A",
"r. c #718216",
"t. c #758519",
"y. c #778819",
"u. c #7B8C1B",
"i. c #7E901C",
"p. c #7F8B25",
"a. c #83951E",
"s. c #86991F",
"d. c #899C1F",
"f. c #828A26",
"g. c #839526",
"h. c #8E9626",
"j. c #879920",
"k. c #8A9D21",
"l. c #86902A",
"z. c #8E962E",
"x. c #919629",
"c. c #8F9733",
"v. c #919731",
"b. c #979E35",
"n. c #BB8C2A",
"m. c #AA972A",
"M. c #B2962C",
"N. c #AC9E3E",
"B. c #9DA13A",
"V. c #A1A642",
"C. c #A8A741",
"Z. c #A7A941",
"A. c #B5A849",
"S. c #BAAB49",
"D. c #CBB75A",
"F. c #C2B552",
"G. c #E48077",
"H. c #EB847E",
"J. c #F28874",
"K. c #CAC957",
"L. c #CEC361",
"P. c #E68982",
"I. c #EE9286",
"U. c #EF948C",
"Y. c #EC9490",
"T. c #EA9994",
"R. c #F19390",
"E. c #F09993",
"W. c #F29E9E",
"Q. c #F4A596",
/* pixels */
"                                                                                                                                ",
"                                                                                                                                ",
"                                                                                                                                ",
"                                                                                                                                ",
"                                                                                                                                ",
"                                                                                                                                ",
"                                                                                                                                ",
"                                                                                                                                ",
"                                                                                                                                ",
"                                                                                                                                ",
"                                                                                                                                ",
"                                                                                                                                ",
"                                                                                                                                ",
"                                                            ] 9                                                                 ",
"                                                            `                                                                   ",
"                                                          K.+                                                                   ",
"                                      a.a.u.u.t.w.$ @ o V.p.X                                                                   ",
"                                  d.s.s.a.u.u.y.r.$ @ c.f.  e.                                                                  ",
"                                d.j.s.s.a.u.u.y.r.$ l.l.o   e.                                                                  ",
"                              k.k.k.s.s.a.a.u.y.r.p.z.@ .                                                                       ",
"                            k.k.k.k.j.j.a.a.y.t.t.v.@ .                                                                         ",
"                            k.k.k.k.j.j.a.y.r.t.B.# @         g.                                                                ",
"                          k.k.k.k.k.k.u.y.t.r.b.% # @         g.                                                                ",
"                        k.k.k.k.j.a.u.y.y.t.b.f.$ @                                                                             ",
"                        k.k.k.a.i.u.u.u.y.l.x.$                 z.                                                              ",
"                        j.s.s.a.a.u.u.y.u.Z.t.                  h.                                                              ",
"                              a.i.i.i.y.Z.                      x.                                                              ",
"                                        A.                                                                                      ",
"                                      L.                                                                                        ",
"                                      N.                          m.                                                            ",
"                                    F.                            M.                                                            ",
"                                    S.                            n.                                                            ",
"                                                                  n.}                                                           ",
"                            G.@.  D.  0.I.                    4.  { [   H.I.                                                    ",
"                        7.E I K U | R +.+.o.#.            8.E I K Z ' W +...#.2.                                                ",
"                      8.~ s s M s p p a e e w y         0.) s M s s a i t ; > 8 ..                                              ",
"                      7.Q A o.( B M s p i e ; * 0     Y.>.V S / ! M s a w ; - ; C                                               ",
"                    R.:.B P.Q.3.( V s p i e w * 6     $.c p 6.J.1.! b u r ; - > k *.                                            ",
"                    R._ M 9.W.q.( V s p i e ; * 3     H w p 9.R.6.~ b u w ; - - g =.                                            ",
"                    T.) s v n M p p i i e e ; * 3     F w i v n s p i e ; - - > k *.                                            ",
"                    T.+.u i i i i i e e e w ; * 6     H w e i a i e e w ; ; - > C 7.                                            ",
"                      -.L j u u t e e w w ; - - H     @.k t u u u t w w ; ; - h %.P.                                            ",
"                      -.P G G K G z k y y ; ; 5         J h l P W P G l 1 < > F <.                                              ",
"                      ;.F j j m z z h y > : l X.        $.l y m L L G l < : 1 T 5.                                              ",
"                        Y y r t d d 1 < > 7 O.            R y r u g d 1 : : 7 &.                                                ",
"                          H 1 > > > , , 5 T                 T 8 > > > : - 8 R                                                   ",
"                              2 & & = 4 q                       2 & * = 3 q                                                     ",
"                                                                                                                                ",
"                                                                                                                                ",
"                                                                                                                                ",
"                                                                                                                                ",
"                                                                                                                                ",
"                                                                                                                                ",
"                                                                                                                                ",
"                                                                                                                                ",
"                                                                                                                                ",
"                                                                                                                                ",
"                                                                                                                                ",
"                                                                                                                                ",
"                                                                                                                                ",
"                                                                                                                                ",
"                                                                                                                                ",
"                                                                                                                                ",
"                                                                                                                                "
};
