/* XPM */
static char *_529a902c4f94ab799292631c2d47a89MSjo7FlF5uibTYFf[] = {
/* columns rows colors chars-per-pixel */
"100 100 63 1 ",
"  c #f7f5e4",
". c #000000",
"X c #0B0300",
"o c #0B0B0B",
"O c #130200",
"+ c #1B0000",
"@ c #140900",
"# c #1B0C00",
"$ c #130B0B",
"% c #111111",
"& c #230000",
"* c #2B0101",
"= c #210E00",
"- c #2A0D0D",
"; c #330000",
": c #3C0101",
"> c #3B0909",
", c #261000",
"< c #2B1200",
"1 c #331600",
"2 c #3B1900",
"3 c #341111",
"4 c #430101",
"5 c #4B0000",
"6 c #4A0B0B",
"7 c #530101",
"8 c #5C0000",
"9 c #5D0C0C",
"0 c #431C00",
"q c #491F00",
"w c #650000",
"e c #6B0000",
"r c #650808",
"t c #730101",
"y c #7D0000",
"u c #7D0D0D",
"i c #7C1313",
"p c #4D2100",
"a c #542400",
"s c #830000",
"d c #8C0101",
"f c #850C0C",
"g c #8E0808",
"h c #940101",
"j c #9A0000",
"k c #950C0C",
"l c #971111",
"z c #A30000",
"x c #AD0000",
"c c #A40D0D",
"v c #B30000",
"b c #BC0101",
"n c #BA0B0B",
"m c #BD1212",
"M c #C40000",
"N c #CA0101",
"B c #C10A0A",
"V c #CC0B0B",
"C c #CE1313",
"Z c #CF1919",
"A c #D01D1D",
"S c #D12323",
"D c #D32929",
/* pixels */
"                                                                                                    ",
"                                                                                                    ",
"                                                                                                    ",
"                                                                                                    ",
"                                                                          ..                        ",
"                                                                         .....                      ",
"                                                                        ..=2@..                     ",
"                                                                       ..#aaa,..                    ",
"                                                                      ..@aaaaa#..                   ",
"                                                                      ..paaaaaaX.                   ",
"                                                                     ..2aaaaaa0X.                   ",
"                                                                    ..#aaaaaa2...                   ",
"                                                                  ...Xpaaaaa#...                    ",
"                                                                ....,paaaapX..                      ",
"                                                               ...#paaaaa2...                       ",
"                                                             ...Xpp,.<aapX..                        ",
"                                                            ..X1a1X...pa@..                         ",
"                                                          ...#pp@....@a,..                          ",
"                                                         ..X2a<X....Xp0..                           ",
"                                                       ...#pp@... ..<a@..                           ",
"                                                      ...1a2X..   .Xa2..                            ",
"                                                     ..X0a<...   ..2aX.                             ",
"                                                    ..@qp#..     .Xa2..                             ",
"                                                   ..#ppX..     ..2a@.                              ",
"                                                  ..,apX..      .Xpp..                              ",
"                                                 ..,a2...      ..,a<..                              ",
"                                                ..<a2...       ..paX.                               ",
"                                               ..,a2...        .Xap..                               ",
"                                              ..#a2X..         .,a1..                               ",
"                                             ..@a0...         ..2a#.                                ",
"                                            ...ppX..          ..aaX.                                ",
"                                            ..paX..           .Xap..                                ",
"                                           ..1a#..            .#a2..                                ",
"                                          ..#a<..            ..<a1..                                ",
"                                          .Xp0..             ..2a<.                                 ",
"                                         ..2pX..             ..0a=.                                 ",
"                                        ..#a,..              ..pa#.                                 ",
"                                        ..p2..               ..pa@.                                 ",
"                                       ..<aX.                ..aaX.                                 ",
"                                       .Xa,..                ..aa@.                                 ",
"                                      ..2p..                 ..aaX.                                 ",
"                                      .Xa@..                 ..aa@.                                 ",
"                                     ..22..                  ..pa@.                                 ",
"                                     .Xa@.                   ..qa#.                                 ",
"                                    ..22..                   ..0a=.                                 ",
"                                    .Xa@.                    ..2a<.                                 ",
"                                   ..<0..               .......<a1.....                             ",
"                                   ..a#.             ......XX..=a2.........                         ",
"                                   .#q..           ...O7dvNNVh.@ap.Xddy8*....                       ",
"                                  ..2<..          ..+yMNNNNNNn.Xaa..bNNNNv8X..                      ",
"                                  .XaX.          ..5BNNNVBrgNV+.pa@.hNNNNNNb5...                    ",
"                       ............=0..         ..wNNNNVVBo$nV4.1a,.eNNzwNNNNyX..                   ",
"                    ......XX+OX....2,...       ..7NNNNNVVV6o-ku.X#X.:d:..dNNNNhX..                  ",
"                  ....*whvMNNNNbs..aX......    .&MNNNVVVVCm3%%$........X8MNNNNNhX.                  ",
"                ...OevNNNNNNNNNNh.@0.Obs:...  ..dNNNVVVVCVCCi3%ooo.oX*ebNNNNNNNNt..                 ",
"               ..XtMNNNNNNNNNNNNw.=1.4NNNj;....&NNNNNVVCCCCZCZmlfufjMMNNNNNNNNNNN:..                ",
"              ..;vNNNNNNNNNv4tNN:.2#.yMNNNNeX..tNNNNVVCCCZZZZZZCVVVNNNNNNNNNNNNNNxX.                ",
"             ..4MNNNNNNNNNNx.+NNO.pX.xNNNNNNdX.8NNVNNVCCCZZZZZZCCCVVVNNNNNNNNNNNNN7..               ",
"            ..4MNNNVVVNVNNNMX.bv.Xp.XMNNNNNNMhX.yNNVVCCCZASZAZZZCCVVNNNNNNNNNNNNNNx..               ",
"            .&MNVVVVCVVVVVNN:.eh.@a.XNNNNNMNNNy.XxVNVCCZZZASSSZZCCVVVNNNNNNNNNNNNNN;.               ",
"           ..jVVVCVCCCCCVVVNh.X8.=q.ONNNNNNNNNN7.;NVVCCZZZSSSSZZCCCVVNNNNNNNNNNNNNNt..              ",
"           .:NNVVCCCCCCCCVVVN5...@=.4vtNNNNNNNNbO.gVVCCZSSSDSSSAZCVVVNNNNNNNNNNNNNNx..              ",
"          ..jNVCCCAAAAACCCVVNB;.....+X.yNNNNNNNNy.*VCCZZZSSDDSSZZCCVNNNNNNNNNNNNNNNMX.              ",
"          .OVNVCCCAASSAAACCVVNM8X.....4xNNNNNNNNMOokVCCZSSDDDSSAZCVVVVNNNNNNNNNNMNNM+.              ",
"          .5VVVCCAASSDSSACCVVNNNvs88yvNNNNNNNNNNNeo6VCCZASSDDSSACCCVVVNNNNNNNNNNNNNN*.              ",
"         ..yNVVCAAASDDSSACCCVNNNNNNNNNNNNNNNNNNNNv.$VCCZASSDSSAAZCVVNNNNNNNNNNNNNNNN*.              ",
"         ..hNVCCCASSSSSAACCVVVNNNNNNNNNNNNNNNNNNNN-ocCZZAASSSSAZZCVVVNNNNNNNNNNNMNNN*.              ",
"         ..zNVVCCAAASSSAACCVNNNNNNNNNNNNNNNNNNNNNN7ouCCCAAASSSAZCCCVNNNNNNNNNNNNNNNN+.              ",
"         ..xNNVVCCAAAAAAZCVVVNNNNNNNNNNNNNNNNNNNNNto9CCCZAAAAAAACCVVVNNNNNNNNNNMNNNMX.              ",
"         ..vNNVVCCCCACCCCVVVNNNNNNNNNNNNNNNNNNNNNNso6VCCCAAAAACCCCVVNNNNNNNNNNNNNNNz..              ",
"         ..zNNVVVCCCCCCCVVVVNNNNNNNNNNNNNNNNNNNNNNho>VVCCCCACACCCVVNNNNNNNNNNNNNNNNe..              ",
"         ..hNNNNNVVVVVVVVVNNNNNNNNNNNMNNNNNNNNMNNNh.>VVVCCACCCCCVVVVNNNNNNNNNNNNNNN*.               ",
"         ..yNNNNNNVVVVVNNNNNNNNNNNNNNNNNNNNNNNNNNNd.6VVVCCCCCVCCVVNNNNNNNNNNNNNNNNx..               ",
"          .8NNNNNNNNNNNNNNNNNNNNNNNNNNNNNNNNNNNNNNt.7NVVVCCVCCVVVVVNNNNNNNNNNNNNNN8..               ",
"          .;NNNNNNNNNNNNNNNNNNNNNNNNNNNNNNNNNNNNNN7.yVVVVVVVVVVVVNNNNNNNNNNNNNNNNvX.                ",
"          .XbNNNNNNNNNNNNNNNNNNNNNNNNNNNNNNNNNNNNN+.zNNVVVVVVVVVNVNNNNNNNNNNNNNNN7..                ",
"          ..yNNNNNNNNNNNNNNNNNNNNNNNNNNMNNNNNNNNNx.XNNNNNVVVNVVNVNNNNNNNNNNNNNNNh..                 ",
"           .;NNNNNNNNNNNNNNNNNNNNNNNNNNNNNNNNNNNNw.;NNNNNNNVVNVNNNNNNNNNNNNNNNNzX.                  ",
"           ..zNNNNNNNNNNNNNNNNNNNNNNNNNNNNNNNNNNMO..8NNNNNVNNNNNNNNNNNMNNNNNNNdX..                  ",
"           ..:NNNNNNNNNNNNNNNNNNNNNNNNNNNNNNNNNNt....;vNNNMNNNNNNNNNNNNNNNNNv5...                   ",
"            ..hNNNNNNNNNNNNNNNNNNNNNNNNNNNNNNNNbO.  ..XwbNNNNNNNNNNNNNNNNNv7X..                     ",
"             .+bNNNNNNNNNNNNNNNNNNNNNNNNNNNNNNN5..   ...X7jMNNNNNNNNNNNvt;....                      ",
"             ..:MNNNNNNNNNNNNNNNNNNNNNNNNNNNNNs..      ....X:8tsddst84O.....                        ",
"              ..7NNNNNNNNNNNNNNNNNNNNNNNNNNNMzX.         ................                           ",
"               ..5MNNNNNNNNNNNNNNNNNNNNNNMNNxO..              ......                                ",
"                ..*xNNNNNNNNNNNNNNNNNNNNNNNhX..                                                     ",
"                 ..XeMNNNNNNNNNNNNNNNNNNNv4...                                                      ",
"                  ...OevNNNNNMNNNNNNNNNj5...                                                        ",
"                    ....;ejbNNNNNNMxy5O....                                                         ",
"                      ......X+&*&O.......                                                           ",
"                         ............                                                               ",
"                                                                                                    ",
"                                                                                                    ",
"                                                                                                    ",
"                                                                                                    ",
"                                                                                                    ",
"                                                                                                    ",
"                                                                                                    ",
"                                                                                                    ",
"                                                                                                    "
};
