/* XPM */
static char *baf1f1fdc55a4668cda460f6dcd1a17dkHSSw2PccbewqNiw[] = {
/* columns rows colors chars-per-pixel */
"100 100 80 1 ",
"  c #f7f5e4",
". c #1E431B",
"X c #21471D",
"o c #224A1E",
"O c #244C21",
"+ c #275024",
"@ c #2A5424",
"# c #2D5827",
"$ c #2E5A28",
"% c #305A25",
"& c #335E29",
"* c #35622B",
"= c #39662A",
"- c #3D6B2C",
"; c #3D6B30",
": c #406E2C",
"> c #44732E",
", c #48772F",
"< c #48792F",
"1 c #416E31",
"2 c #457433",
"3 c #487735",
"4 c #477830",
"5 c #4B7B33",
"6 c #4D7D39",
"7 c #4E8134",
"8 c #4F803A",
"9 c #518436",
"0 c #578C36",
"q c #53843B",
"w c #56893C",
"e c #598C3E",
"r c #5E933B",
"t c #528640",
"y c #558941",
"u c #5B8E41",
"i c #5E9142",
"p c #5F9649",
"a c #629543",
"s c #659945",
"d c #699D47",
"f c #629749",
"g c #669B4B",
"h c #699E4B",
"j c #6CA346",
"k c #6DA24C",
"l c #72A54E",
"z c #71A849",
"x c #6EA552",
"c c #72A651",
"v c #75AA53",
"b c #79AD55",
"n c #77AD58",
"m c #7AAF59",
"M c #7EB257",
"N c #77B15C",
"B c #7DB25B",
"V c #7FB760",
"C c #82B55D",
"Z c #85B95E",
"A c #8BBF5E",
"S c #81B760",
"D c #84BB61",
"F c #8ABD62",
"G c #8DC064",
"H c #8DC569",
"J c #90C366",
"K c #95C66A",
"L c #95C96D",
"P c #99CA6E",
"I c #97CD70",
"U c #9ECE72",
"Y c #9DD072",
"T c #A2D375",
"R c #A8D676",
"E c #A3D678",
"W c #A6D879",
"Q c #ACDB7C",
"! c #B2DF80",
"~ c #B3E182",
/* pixels */
"                                                                                                    ",
"                                                                                                    ",
"                                                                                                    ",
"                                                                                                    ",
"                                                                                                    ",
"                                                                                                    ",
"                                                                                                    ",
"                                                                                                    ",
"                                                                                                    ",
"                                                                                                    ",
"                                                                                                    ",
"                                                                                                    ",
"                                                                                                    ",
"                                                                                                    ",
"                                                                                                    ",
"                                                                                                    ",
"                                                                                                    ",
"                                                                                                    ",
"                                                                                                    ",
"                                                                                                    ",
"                                                                                                    ",
"                                                                                                    ",
"                                                                                                    ",
"                                                                                                    ",
"                                                                                                    ",
"                                                                                                    ",
"                                                                        ;                           ",
"                                                                        ;                           ",
"                                                                       ;;                           ",
"                                                                       1                            ",
"                                                                      22                            ",
"                                                                      31                            ",
"                                                                     362                            ",
"                                                                    3t3                             ",
"                                                                    6y3                             ",
"                                                                   6u63                             ",
"                                                                   8f63                             ",
"                                                                  6fy6                              ",
"                                                                  qx36                              ",
"                                                                  gf66                              ",
"                                                                 qNt66                              ",
"                                                                 gcq6                               ",
"                                                                wVpqq                               ",
"                                                                gSqq6                               ",
"                                                               wSxqq6                               ",
"                                                               gHuqq                                ",
"                                                              eCCwwq                                ",
"                                                              fLguwq                                ",
"                                                              BKuwwq                                ",
"                                                             iLmuww                                 ",
"                                                             nYfiew                                 ",
"                                                            wLGieeq                                 ",
"                                                            hEviee6                                 ",
"                                                            JTaiuw                                  ",
"                                                           iRFaeuq                                  ",
"                                             1             mQlaar6                                  ",
"                                             2            0UTfaie<                                  ",
"                                             3            h~Zaiiw                                   ",
"                                            36            F!daai9                                   ",
"                                            q6           0QUssii5                                   ",
"                                            u6           lQCsaie4                                   ",
"                                            f6           P~dsaa9                                    ",
"                                           6g6          r!Kssaa5                                    ",
"                                           yg6          C~Csaai<                                    ",
"                                           ff6          KQdsaaw5                                    ",
"                                           cuq         iQJdsaa9                                     ",
"                                           Vwq         bQbdaaa5                                     ",
"                                          uSwq         JTdssa05                                     ",
"                                         ;fSuq        rEGdsfaw5                                     ",
"                                         ;cmuq        lWlsaaa7                                      ",
"                                        2 Bvyw        ZYdsaar5                                      ",
"                                        6 Fxuq       0YZssaae4                               X      ",
"                                       66 Pfeq       dYldaai9<                            Oo        ",
"                                       y3eTaiq       nLdfaaa94                          +O.         ",
"                                       p3hUai9      0GZsaaa05                         &$o           ",
"                                      uu3nKaa9      0Icaaaaw4                        2*             ",
"                                      kq CJai9      hLsaaai9<                      t6*              ",
"                                      c6 JZaa7     9MBaaaii5,                     p6*               ",
"                                     ghq UCaa7     9Dliaiuu5                    ng2                 ",
"                         1           niw Qlaa5     wHfairuw4                   Sf4                  ",
"                         3           Fwq ~kfa5    7fCaaiae9>                 FFs7                   ",
"                         6          kBuqsQsaa5    5xciiiee6>                KGs9                    ",
"                         t          CxuqlRdai<    5Bsuieew4                TGj0                     ",
"                         u          Kaw vPssa5    7Siuueeq4               RAjr                      ",
"                        qp         sKiu bJsai<   <wvuueue9>              TAzr                       ",
"                        pu         CZae MAdar<   5pkuwuww4>             PZzr                        ",
"                        gy         Kcaw CCaae<   4kuwuwwq>             ZCzr                         ",
"                        cyq        Rfi9 Avaae5   4kwuwww62            Cbdr                          ",
"                        mwq       vUaa9 Flaae4  45kqyyww4>           kvs0                           ",
"                        Suq       AFsi5 Fhaae<  27pwqqqq>:          ixi9                            ",
"                        Duq       Pbai5 Gfaaw<  >qiqqqq8>-         6gw7                             ",
"                        Fuq       Qdae 9Gaarw> >>yqqqq84-          iq7>                             ",
"                        Fiq      lPsaw 7Baiiw> :>yq98882-         666>                              ",
"                       cFaq      bFsa9 7Bfirw> >28q88q5--        ;63-                               ",
"                       bZi9      DMaa7 7Niie9> ;2888882-=       &11-                                ",
"                       CCaq      Ljaa5 5viiw8<--478678-=        *;=%                                ",
"                       FCi9     rKsfr4 5vuuu6>--466665==       @$*#                                 ",
"                       FCiw     dFaae4 4kewy6---36666:==      X@$+                                  ",
"                       Fvs9     lbaaw  ,gwwq<---36363===      O@OX                                  ",
"                       Flse     vlai9  ,fwwq<-==33631==      .+o.                                   "
};
