/* XPM */
static char *_f0207e7cb01492ef860f432958264e5LU0hQ7xxIYScvIVc[] = {
/* columns rows colors chars-per-pixel */
"64 64 62 1 ",
"  c #f7f5e4",
". c #1F451D",
"X c #234B1E",
"o c #234B20",
"O c #275225",
"+ c #295223",
"@ c #305B26",
"# c #315E29",
"$ c #386427",
"% c #34602B",
"& c #39662B",
"* c #3D6B2B",
"= c #3E6C31",
"- c #406E2E",
"; c #43722E",
": c #48792F",
"> c #426F31",
", c #457433",
"< c #487735",
"1 c #4B7C34",
"2 c #4A7738",
"3 c #4D7D39",
"4 c #4F8136",
"5 c #4F813A",
"6 c #528437",
"7 c #53853B",
"8 c #56893D",
"9 c #5A8D3E",
"0 c #61973F",
"q c #568940",
"w c #5B8E41",
"e c #5E9142",
"r c #5E9248",
"t c #619544",
"y c #659946",
"u c #689D47",
"i c #659A4A",
"p c #6A9E4A",
"a c #6CA14C",
"s c #71A44E",
"d c #73A94D",
"f c #6EA452",
"g c #71A651",
"h c #76AA54",
"j c #7AAD55",
"k c #77AD59",
"l c #7BAF58",
"z c #7CB153",
"x c #7DB25A",
"c c #82B65D",
"v c #86B95E",
"b c #85B861",
"n c #8ABD62",
"m c #8DC166",
"M c #91C465",
"N c #94C76B",
"B c #97C86C",
"V c #9BCB6E",
"C c #9DCD70",
"Z c #9FD073",
"A c #A2D274",
"S c #A8D579",
/* pixels */
"                                                                ",
"                                                                ",
"                                                                ",
"                                                                ",
"                                                                ",
"                                                                ",
"                                                                ",
"                                                                ",
"                                                                ",
"                                                                ",
"                                                                ",
"                                                                ",
"                                                                ",
"                                                                ",
"                                                                ",
"                                                                ",
"                                                                ",
"                                              =                 ",
"                                             >                  ",
"                                             ,                  ",
"                                            ,,                  ",
"                                            q                   ",
"                                           q3                   ",
"                                           q3                   ",
"                                          qq3                   ",
"                                          aq3                   ",
"                                         tp7                    ",
"                                         fw3                    ",
"                                        wkq7                    ",
"                                        hg8                     ",
"                                        mr8                     ",
"                                       gx98                     ",
"                                       npw7                     ",
"                                      pNt93                     ",
"                                      mbw9                      ",
"                                      Za08                      ",
"                             ,       hNtw6                      ",
"                            3        Clt01                      ",
"                            7       aSpt9                       ",
"                            r       nVyt8                       ",
"                            t       Vzye1                       ",
"                           pr      sAut01                       ",
"                           hq      cvut8                        ",
"                          >hq      Vjyt6                        ",
"                          2h9     aVptt4                        ",
"                         <8lw     znyt91                        ",
"                         3tl9     vsyt6                   X     ",
"                         8sl9    9nutt4                #X       ",
"                        r7lh9    tctte1               =%        ",
"                        f3ns9    hgte9:             r<          ",
"                        y6Va9    xyte8             p4           ",
"                <      ge8Aut   9xe091           ng6            ",
"                3      jeeCy9   eaee9:          Vh              ",
"                q      cwyny9   re998;         Zc               ",
"               w9     hj9act9  :re994;        Mz                ",
"               f8     Np8jct9  1iw881        cd0                ",
"               k8     Bt6lgt8  :r887,       aa9                 ",
"               c9     vt4jpt8  3e874*      rt6                  ",
"               b9    lht ste6 ;7777,*      84                   ",
"               b9    xs0 at08 -7555*      2,                    ",
"               c9    vu9 tt96 -3551*     &=&                    ",
"               c9    nt8 eew3*-333;&    +%@                     ",
"               l0    xt8 9w81**331*$    O+                      ",
"               he   sae6 787,**1<,&    .o.                      "
};
