/* XPM */
static char *_08d8acd25f241a0f16fa9f341f86499kIqP9nrvukTq83Uu[] = {
/* columns rows colors chars-per-pixel */
"64 64 149 2 ",
"   c #f7f5e4",
".  c #0F0807",
"X  c #0C0D0B",
"o  c #110E0C",
"O  c #1D0E0C",
"+  c #0F100E",
"@  c #11110F",
"#  c #1C120F",
"$  c #131412",
"%  c #1B1412",
"&  c #171817",
"*  c #181917",
"=  c #1B1B1A",
"-  c #240E0C",
";  c #2B0F0D",
":  c #340F0E",
">  c #33100E",
",  c #3E100F",
"<  c #201715",
"1  c #221916",
"2  c #251A19",
"3  c #2D1D1B",
"4  c #321210",
"5  c #341915",
"6  c #1F201F",
"7  c #22200B",
"8  c #37330D",
"9  c #3F3B0C",
"0  c #20201F",
"q  c #2C221E",
"w  c #30211E",
"e  c #232423",
"r  c #272827",
"t  c #282827",
"y  c #2B2C2B",
"u  c #342221",
"i  c #3B2524",
"p  c #342923",
"a  c #3C2B26",
"s  c #3E2A28",
"d  c #2F302F",
"f  c #32312E",
"g  c #3C342A",
"h  c #363635",
"j  c #363736",
"k  c #353535",
"l  c #333332",
"z  c #3C3736",
"x  c #373837",
"c  c #383837",
"v  c #383938",
"b  c #3B3B3B",
"n  c #3A3A39",
"m  c #3B3C3B",
"M  c #3C3C3B",
"N  c #3D3D3C",
"B  c #3D3E3D",
"V  c #3F3F3E",
"C  c #3B3C3B",
"Z  c #411110",
"A  c #4A1312",
"S  c #531312",
"D  c #5B1414",
"F  c #641414",
"G  c #6B1616",
"H  c #711617",
"J  c #781718",
"K  c #412B0B",
"L  c #4A3426",
"P  c #43312A",
"I  c #48382E",
"U  c #493A30",
"Y  c #3F403F",
"T  c #555009",
"R  c #645D09",
"E  c #7B6F0C",
"W  c #494236",
"Q  c #564539",
"!  c gray25",
"~  c #414141",
"^  c #404140",
"/  c #424242",
"(  c #424241",
")  c #434443",
"_  c #454544",
"`  c #464646",
"'  c gray28",
"]  c #474746",
"[  c #454645",
"{  c #434343",
"}  c #474847",
"|  c #484847",
" . c #494847",
".. c gray29",
"X. c #4B4B4B",
"o. c #494949",
"O. c #4C4C4B",
"+. c #4D4D4D",
"@. c #4E4E4E",
"#. c #4D4E4D",
"$. c #4B4B4B",
"%. c #514645",
"&. c #5D5243",
"*. c #515151",
"=. c #545454",
"-. c #525251",
";. c #585858",
":. c #5B5B5B",
">. c #5D5D5D",
",. c #5A5A5A",
"<. c #655244",
"1. c #6A5445",
"2. c #6A5E4D",
"3. c #756353",
"4. c #7F6553",
"5. c #736A56",
"6. c #7D735D",
"7. c #636363",
"8. c #811819",
"9. c #931A1C",
"0. c #9E1B1D",
"q. c #A71C1F",
"w. c #AA1D1F",
"e. c #B71E20",
"r. c #C21F22",
"t. c #C62023",
"y. c #996A06",
"u. c #827907",
"i. c #A36405",
"p. c #806351",
"a. c #8A6C59",
"s. c #95735F",
"d. c #887862",
"f. c #907F67",
"g. c #917F68",
"h. c #908607",
"j. c #9E900A",
"k. c #B5A508",
"l. c #BDAE08",
"z. c #8E826A",
"x. c #9A856D",
"c. c #9E8E74",
"v. c #AB977B",
"b. c #C69A7E",
"n. c #AD9E80",
"m. c #AFA183",
"M. c #B3A385",
"N. c #BDAE8E",
"B. c #CEB291",
/* pixels */
"                                                                                                                                ",
"                                                                                                                                ",
"                                                                                                                                ",
"                                                                                                                                ",
"                                                                                                                                ",
"                *                                                                                         $                     ",
"                $ $                                                                                     $ +                     ",
"                $ * $ X                                                                             X $ * o                     ",
"                % % 0 * X X                             X X   X X X X X X                     X X X * e % X                     ",
"                  w @ * $ = * $ X           X   X X X X $ X X X X X X X X X X X X X     X X $ = 0 $ $ o 2 X                     ",
"                  @ 2 % X $ = 0 * $ X X X X X + $ + X + $ $ X @ X $ $ X X $ $ X X X X X $ $ * * $ X % 2 @                       ",
"                  X 1 u o X $ $ X + X X X X $ r 0 = $ l l * $ $ 0 l l $ e r y = X X X X X X @ $ X o 3 2 X                       ",
"                  X X % % X X X X X X + $ * * = y ) V l @.l $ $ f ..k V ' l = $ * $ + X X X X X X % % X X                       ",
"                  X X o $ @ $ o X @ + $ r k ( k ' >.;.( v } & + v k V ' >.' r e = * * $ + X X X X @ @ X X                       ",
"                  X X X o X @ X X X X $ * 6 l ( m @...m l r = $ r y y V @.v ( l e $ $ @ X X X X X X X X X                       ",
"                      X X $ $ o X @ X * = e ( ( ..v y $ e = $ + * 0 + y l @.( V r t e @ * + X X X X X                           ",
"                        X X X X X + $ & V ' ' -.v V r = $ X @ X + $ = t M v =.@.' k $ & = $ X $ X X                             ",
"                        X X X + $ = r y l v ..-.( y & = e X & $ X e = $ r v @...v v l e e r * X X @                             ",
"                      X + X X $ $ * $ V ..O.=.' y 6 * $ t * $ X $ r * & = t ' ;.@.} ( = = & + X X X $                           ",
"                      X X X X $ $ e v ..O.@.( ' t $ * $ * = X X * = + = $ e V v @.@.@.l & $ $ X X X $                           ",
"                    X X + $ * * $ * e r V k l = e $ * + + = X X & @ X * $ = = y y l r e * $ * * $ X X X                         ",
"                    X X X $ + X X $ $ = * * $ * $ $ e * X $ X X $ + * r @ $ * $ * * e y r * @ $ $ $ @ X                         ",
"                    X X X X + X + @ @ e t $ + & * + * 0 $ $ X X X * * = + * * X $ r 6 @ $ + $ $ X @ + X                         ",
"                  X X X X X X X $ $ $ 0 t e t 0 V V t e * $ X X + * e y ' ( e l r t r = $ + X X X @ X X X                       ",
"                  X $ $ + X X * X + $ y ( ' @.v e ( ( e $ $ X X $ $ e V V e V @...' y $ $ $ * X X $ $ X X                       ",
"                @ + @ @ X X e = * r $ $ v =.( ....e t r $ * X X = + e e e  .' ( -.y + * t $ $ $ X X $ X X X                     ",
"              X X + X $ $ * @ X @ * f r @ t v v l y $ * X $ $ @ $ X * $ t t l y = X e y $ $ X X $ @ $ @ X X X                   ",
"              X $ X $ $ * & $ * $ e * k $ @ h.8 r = $ $ @ + $ $ X $ $ $ = e K l.o X e * = $ $ + $ * $ $ X $ X                   ",
"            X X X X $ * t r $ = r e e r $ @ k.i.9 @ + * $ $ $ @ X X $ $ @ T y.l.% $ y 6 y t = $ * y * $ X X + X                 ",
"              X $ X $ $ * $ X = y y e = * @ L u.j.7 X X @ X X X X X X X @ E R L @ e = 0 r r 0 X * 6 $ $ X @ X +                 ",
"              $ + X $ + $ $ $ y V ( e $ $ X $ 2 @ X X $ * $ X X e y * X X X 1 X X $ $ e ' ' l $ & * $ + + X $                   ",
"            * X $ $ $ t ( r $ = V ;.' = + + $ X X $ t V m k $ * m ' m = X X $ e @ * = ' ;.V e @ e ( y $ + $ + +                 ",
"            X $ X X * ( ..V $ * r k V V v d t t t t M k O.k * e v ( m k l r e e l l v k y e = $ V @.( = X X $ X                 ",
"            X X X + r ( ..c l e $ $ $ * @ * t 6 e -...V ' Y $ 0 x _ V V ' y $ & * X $ $ $ $ e v k V ( y X X @ X X               ",
"            X X X $ $ * * * y @.k l k = $ = $ @ x k ;.k V v $ = f v k -.t k e @ r * e V V v ..y * $ @ X + $ $ X                 ",
"            X X $ X X X X @ * 6 l l y = * $ X $ M v =.l = $ X X * y ....t l $ X * $ * r t t $ @ $ X X X X $ + X                 ",
"            X X * $ + X $ = * @ + @ X X X X X * l ..$ X X X X X X X $ v ( e + X + X + X $ @ $ & = $ X X $ X X X                 ",
"              X $ + X $ = = * $ $ @ = $ X X X @ l t X X X X X X X X X r  .r X X X X @ 6 $ $ $ $ * * $ X X X X                   ",
"                $ X + $ X X $ $ * * $ $ @ $ X @ l l e y y e X @ $ + V y -.$ X X $ $ $ $ $ $ $ $ + X + X X X                     ",
"                $ X X X X @ + $ $ @ + $ e = * X = v r  .%.7.k V z X.k V y X X & 6 e $ X @ $ $ + @ + X X X X                     ",
"                X X X @ $ X X X @ $ X X $ * * X X % @ 2 e @.7.>.v = $ X X X X & * + X X $ + X X X X + X X X                     ",
"              $   $ X + X X X X X X X X X + $ $ ; P 6.&.a q 2 q s 3.g 6.O X @ $ + X X X X X X X X X X X @   X                   ",
"                  + X X X X X X X X X X X X $ X ; w N.z.6.N.&.3.5.M.5.c.O X + $ X X X X X X X X X X + X X                       ",
"                  X       X $ X X X X X X X @ X X 4 B.x.x.v.n.m.d.g.M.4.O X X $ X X X X X X X X X     X X                       ",
"                          X $ X X X X X X X X X X - s.1.I 4.p.a.Q U b.P O X X X X X X X X X X X X                               ",
"                            X   X $ X + @ X X $ X % p Q X 1 % % o X s.- > X $ + X X X $ X X   X                                 ",
"                                X   X $ X X X $ + o % 1 X S , : - X q - Z + $ X X X X X   X                                     ",
"                                    X   X X X X @ X o < - w.D D 0.o < - A @ X X X X   X                                         ",
"                                            X X X + X % S t.J F t.A i ; ; X X X                                                 ",
"                                            X X X X X X D t.9.D r.G % : o X X X X                                               ",
"                                              X X X o q S e.0.9.t.S a - X X X                                                   ",
"                                              X X X X 1.- H 0.w.q.# <.. X X X                                                   ",
"                                                X X X f.g ; G 8.5 g 1.. X X X                                                   ",
"                                                X X X &.&.Q % Q &.g Q o X X                                                     ",
"                                                  X $ X p 6.g 2.W 3 O $ X                                                       ",
"                                                    $ $ X u w s 2 @ * X                                                         ",
"                                                    * $ r $ X X $ e @                                                           ",
"                                                        @ $ $ $ $ $                                                             ",
"                                                          X X X @                                                               ",
"                                                                                                                                ",
"                                                                                                                                ",
"                                                                                                                                ",
"                                                                                                                                ",
"                                                                                                                                "
};
